<mxfile host="app.diagrams.net" agent="Mozilla/5.0 (Windows NT 10.0; Win64; x64) AppleWebKit/537.36 (KHTML, like Gecko) Chrome/132.0.0.0 Safari/537.36 OPR/117.0.0.0" version="26.1.0">
  <diagram name="Red" id="Kx8mr4q-FzYUuHjXKfGT">
    <mxGraphModel dx="2770" dy="1450" grid="1" gridSize="10" guides="1" tooltips="1" connect="1" arrows="1" fold="1" page="1" pageScale="1" pageWidth="1654" pageHeight="1169" background="none" math="0" shadow="0">
      <root>
        <mxCell id="0" />
        <mxCell id="1" parent="0" />
        <mxCell id="oUtlI6CtiOxXI8-v9puc-73" value="" style="whiteSpace=wrap;html=1;rounded=1;shadow=0;glass=0;arcSize=12;fillColor=#f5f5f5;fontColor=#333333;strokeColor=#666666;" vertex="1" parent="1">
          <mxGeometry x="593.89" y="422" width="160" height="250" as="geometry" />
        </mxCell>
        <mxCell id="oUtlI6CtiOxXI8-v9puc-70" style="edgeStyle=orthogonalEdgeStyle;rounded=0;orthogonalLoop=1;jettySize=auto;html=1;endArrow=none;startFill=0;" edge="1" parent="1" source="oUtlI6CtiOxXI8-v9puc-17" target="oUtlI6CtiOxXI8-v9puc-68">
          <mxGeometry relative="1" as="geometry">
            <Array as="points">
              <mxPoint x="1358" y="932" />
              <mxPoint x="1358" y="932" />
            </Array>
          </mxGeometry>
        </mxCell>
        <mxCell id="oUtlI6CtiOxXI8-v9puc-71" style="edgeStyle=orthogonalEdgeStyle;rounded=0;orthogonalLoop=1;jettySize=auto;html=1;endArrow=none;startFill=0;exitX=0.621;exitY=1.001;exitDx=0;exitDy=0;exitPerimeter=0;entryX=0.486;entryY=0.013;entryDx=0;entryDy=0;entryPerimeter=0;" edge="1" parent="1" source="oUtlI6CtiOxXI8-v9puc-17" target="oUtlI6CtiOxXI8-v9puc-26">
          <mxGeometry relative="1" as="geometry">
            <mxPoint x="1279" y="912" as="sourcePoint" />
            <mxPoint x="1279" y="952" as="targetPoint" />
            <Array as="points">
              <mxPoint x="1278" y="922" />
              <mxPoint x="1278" y="922" />
            </Array>
          </mxGeometry>
        </mxCell>
        <mxCell id="oUtlI6CtiOxXI8-v9puc-17" value="" style="whiteSpace=wrap;html=1;rounded=1;shadow=0;glass=0;arcSize=2;dashed=1;dashPattern=8 8;fillColor=#f5f5f5;strokeColor=#666666;fontColor=#333333;" vertex="1" parent="1">
          <mxGeometry x="793" y="321" width="781" height="590" as="geometry" />
        </mxCell>
        <mxCell id="oUtlI6CtiOxXI8-v9puc-10" style="edgeStyle=orthogonalEdgeStyle;rounded=0;orthogonalLoop=1;jettySize=auto;html=1;dashed=1;dashPattern=8 8;exitX=0.003;exitY=0.694;exitDx=0;exitDy=0;exitPerimeter=0;" edge="1" parent="1" source="oUtlI6CtiOxXI8-v9puc-17">
          <mxGeometry relative="1" as="geometry">
            <mxPoint x="513" y="730" as="targetPoint" />
            <mxPoint x="772" y="730" as="sourcePoint" />
          </mxGeometry>
        </mxCell>
        <mxCell id="oUtlI6CtiOxXI8-v9puc-41" style="edgeStyle=orthogonalEdgeStyle;rounded=0;orthogonalLoop=1;jettySize=auto;html=1;exitX=0.996;exitY=0.085;exitDx=0;exitDy=0;exitPerimeter=0;" edge="1" parent="1" source="oUtlI6CtiOxXI8-v9puc-6" target="oUtlI6CtiOxXI8-v9puc-29">
          <mxGeometry relative="1" as="geometry">
            <mxPoint x="1446" y="403" as="sourcePoint" />
          </mxGeometry>
        </mxCell>
        <mxCell id="oUtlI6CtiOxXI8-v9puc-6" value="" style="whiteSpace=wrap;html=1;rounded=1;shadow=0;glass=0;arcSize=2;strokeWidth=1;perimeterSpacing=2;" vertex="1" parent="1">
          <mxGeometry x="813" y="362" width="634" height="470" as="geometry" />
        </mxCell>
        <mxCell id="oUtlI6CtiOxXI8-v9puc-3" value="" style="whiteSpace=wrap;html=1;rounded=1;shadow=0;glass=0;arcSize=12;fillColor=#f5f5f5;fontColor=#333333;strokeColor=#666666;" vertex="1" parent="1">
          <mxGeometry x="837" y="410" width="580" height="392" as="geometry" />
        </mxCell>
        <mxCell id="oUtlI6CtiOxXI8-v9puc-2" value="" style="whiteSpace=wrap;html=1;fillColor=#dae8fc;rounded=1;shadow=0;glass=0;strokeColor=#6c8ebf;" vertex="1" parent="1">
          <mxGeometry x="1092.4099999999999" y="439" width="281.59" height="260" as="geometry" />
        </mxCell>
        <mxCell id="oUtlI6CtiOxXI8-v9puc-1" value="" style="whiteSpace=wrap;html=1;fillColor=#dae8fc;rounded=1;shadow=0;glass=0;strokeColor=#6c8ebf;" vertex="1" parent="1">
          <mxGeometry x="883.11" y="442" width="146.19" height="260" as="geometry" />
        </mxCell>
        <mxCell id="4nu3x6ZRgFAnAhl5ueNj-1" value="Load Balancers" style="image;aspect=fixed;html=1;points=[];align=center;fontSize=12;image=img/lib/azure2/networking/Load_Balancers.svg;imageBackground=none;imageBorder=none;textShadow=0;labelBackgroundColor=none;" parent="1" vertex="1">
          <mxGeometry x="644.89" y="442" width="58" height="58" as="geometry" />
        </mxCell>
        <mxCell id="4nu3x6ZRgFAnAhl5ueNj-4" value="Kubernets" style="image;aspect=fixed;html=1;points=[];align=center;fontSize=12;image=img/lib/mscae/Kubernetes.svg;labelBackgroundColor=none;" parent="1" vertex="1">
          <mxGeometry x="931.21" y="720" width="50" height="48" as="geometry" />
        </mxCell>
        <mxCell id="4nu3x6ZRgFAnAhl5ueNj-6" value="Azure Devops" style="image;aspect=fixed;html=1;points=[];align=center;fontSize=12;image=img/lib/azure2/devops/Azure_DevOps.svg;" parent="1" vertex="1">
          <mxGeometry x="486.75" y="959.75" width="46.5" height="46.5" as="geometry" />
        </mxCell>
        <mxCell id="oUtlI6CtiOxXI8-v9puc-15" value="" style="edgeStyle=orthogonalEdgeStyle;rounded=0;orthogonalLoop=1;jettySize=auto;html=1;dashed=1;dashPattern=8 8;" edge="1" parent="1" source="4nu3x6ZRgFAnAhl5ueNj-8" target="4nu3x6ZRgFAnAhl5ueNj-17">
          <mxGeometry relative="1" as="geometry">
            <Array as="points">
              <mxPoint x="436" y="730" />
              <mxPoint x="436" y="730" />
            </Array>
          </mxGeometry>
        </mxCell>
        <mxCell id="4nu3x6ZRgFAnAhl5ueNj-8" value="Azure Pipelines" style="image;aspect=fixed;html=1;points=[];align=center;fontSize=12;image=img/lib/mscae/Azure_Pipelines.svg;" parent="1" vertex="1">
          <mxGeometry x="234" y="701" width="50" height="50" as="geometry" />
        </mxCell>
        <mxCell id="4nu3x6ZRgFAnAhl5ueNj-9" value="Azure Active Directory" style="image;aspect=fixed;html=1;points=[];align=center;fontSize=12;image=img/lib/mscae/Active_Directory.svg;" parent="1" vertex="1">
          <mxGeometry x="967" y="958" width="50" height="50" as="geometry" />
        </mxCell>
        <mxCell id="4nu3x6ZRgFAnAhl5ueNj-10" value="" style="image;aspect=fixed;html=1;points=[];align=center;fontSize=12;image=img/lib/mscae/Virtual_Network.svg;imageBackground=default;" parent="1" vertex="1">
          <mxGeometry x="803" y="313" width="32.14" height="18" as="geometry" />
        </mxCell>
        <mxCell id="oUtlI6CtiOxXI8-v9puc-75" value="" style="edgeStyle=orthogonalEdgeStyle;rounded=0;orthogonalLoop=1;jettySize=auto;html=1;entryX=0.002;entryY=0.587;entryDx=0;entryDy=0;entryPerimeter=0;" edge="1" parent="1" source="4nu3x6ZRgFAnAhl5ueNj-12" target="oUtlI6CtiOxXI8-v9puc-73">
          <mxGeometry relative="1" as="geometry" />
        </mxCell>
        <mxCell id="4nu3x6ZRgFAnAhl5ueNj-12" value="Azure firewall" style="image;aspect=fixed;html=1;points=[];align=center;fontSize=12;image=img/lib/mscae/Azure_Firewall.svg;" parent="1" vertex="1">
          <mxGeometry x="481" y="540" width="58" height="58" as="geometry" />
        </mxCell>
        <mxCell id="4nu3x6ZRgFAnAhl5ueNj-16" value="Microsoft Defender for Cloud" style="image;aspect=fixed;html=1;points=[];align=center;fontSize=12;image=img/lib/azure2/security/Security_Center.svg;" parent="1" vertex="1">
          <mxGeometry x="649.78" y="321" width="46.94" height="57" as="geometry" />
        </mxCell>
        <mxCell id="4nu3x6ZRgFAnAhl5ueNj-17" value="Container Registers" style="image;aspect=fixed;html=1;points=[];align=center;fontSize=12;image=img/lib/azure2/containers/Container_Registries.svg;" parent="1" vertex="1">
          <mxGeometry x="452.26" y="701" width="55.74" height="50" as="geometry" />
        </mxCell>
        <mxCell id="4nu3x6ZRgFAnAhl5ueNj-37" style="edgeStyle=orthogonalEdgeStyle;rounded=0;orthogonalLoop=1;jettySize=auto;html=1;" parent="1" edge="1">
          <mxGeometry relative="1" as="geometry">
            <mxPoint x="478" y="572" as="targetPoint" />
            <mxPoint x="393" y="572" as="sourcePoint" />
          </mxGeometry>
        </mxCell>
        <mxCell id="4nu3x6ZRgFAnAhl5ueNj-19" value="Client Apps" style="image;aspect=fixed;html=1;points=[];align=center;fontSize=12;image=img/lib/azure2/intune/Client_Apps.svg;" parent="1" vertex="1">
          <mxGeometry x="197" y="540" width="58" height="58" as="geometry" />
        </mxCell>
        <mxCell id="4nu3x6ZRgFAnAhl5ueNj-21" value="GitHub" style="dashed=0;outlineConnect=0;html=1;align=center;labelPosition=center;verticalLabelPosition=bottom;verticalAlign=top;shape=mxgraph.weblogos.github;aspect=fixed;" parent="1" vertex="1">
          <mxGeometry x="486.75" y="321.5" width="56.5" height="56.5" as="geometry" />
        </mxCell>
        <mxCell id="4nu3x6ZRgFAnAhl5ueNj-22" value="" style="aspect=fixed;html=1;dashed=0;whitespace=wrap;verticalLabelPosition=bottom;verticalAlign=top;fillColor=#2875E2;strokeColor=#ffffff;points=[[0.005,0.63,0],[0.1,0.2,0],[0.9,0.2,0],[0.5,0,0],[0.995,0.63,0],[0.72,0.99,0],[0.5,1,0],[0.28,0.99,0]];shape=mxgraph.kubernetes.icon2;prIcon=hpa;" parent="1" vertex="1">
          <mxGeometry x="1277" y="600" width="62.5" height="60" as="geometry" />
        </mxCell>
        <mxCell id="4nu3x6ZRgFAnAhl5ueNj-27" value="Ingress" style="aspect=fixed;html=1;dashed=0;whitespace=wrap;verticalLabelPosition=bottom;verticalAlign=top;fillColor=#2875E2;strokeColor=#ffffff;points=[[0.005,0.63,0],[0.1,0.2,0],[0.9,0.2,0],[0.5,0,0],[0.995,0.63,0],[0.72,0.99,0],[0.5,1,0],[0.28,0.99,0]];shape=mxgraph.kubernetes.icon2;prIcon=ing;" parent="1" vertex="1">
          <mxGeometry x="926" y="540" width="60.41" height="58" as="geometry" />
        </mxCell>
        <mxCell id="oUtlI6CtiOxXI8-v9puc-39" style="edgeStyle=orthogonalEdgeStyle;rounded=0;orthogonalLoop=1;jettySize=auto;html=1;" edge="1" parent="1" source="4nu3x6ZRgFAnAhl5ueNj-28" target="oUtlI6CtiOxXI8-v9puc-30">
          <mxGeometry relative="1" as="geometry" />
        </mxCell>
        <mxCell id="4nu3x6ZRgFAnAhl5ueNj-28" value="" style="aspect=fixed;html=1;dashed=0;whitespace=wrap;verticalLabelPosition=bottom;verticalAlign=top;fillColor=#2875E2;strokeColor=#ffffff;points=[[0.005,0.63,0],[0.1,0.2,0],[0.9,0.2,0],[0.5,0,0],[0.995,0.63,0],[0.72,0.99,0],[0.5,1,0],[0.28,0.99,0]];shape=mxgraph.kubernetes.icon2;prIcon=hpa;" parent="1" vertex="1">
          <mxGeometry x="1276" y="482" width="64.58" height="62" as="geometry" />
        </mxCell>
        <mxCell id="4nu3x6ZRgFAnAhl5ueNj-31" value="" style="aspect=fixed;html=1;dashed=0;whitespace=wrap;verticalLabelPosition=bottom;verticalAlign=top;fillColor=#2875E2;strokeColor=#ffffff;points=[[0.005,0.63,0],[0.1,0.2,0],[0.9,0.2,0],[0.5,0,0],[0.995,0.63,0],[0.72,0.99,0],[0.5,1,0],[0.28,0.99,0]];shape=mxgraph.kubernetes.icon2;prIcon=hpa;" parent="1" vertex="1">
          <mxGeometry x="1117" y="540" width="60.41" height="58" as="geometry" />
        </mxCell>
        <mxCell id="4nu3x6ZRgFAnAhl5ueNj-32" style="edgeStyle=orthogonalEdgeStyle;rounded=0;orthogonalLoop=1;jettySize=auto;html=1;entryX=0.005;entryY=0.63;entryDx=0;entryDy=0;entryPerimeter=0;" parent="1" edge="1">
          <mxGeometry relative="1" as="geometry">
            <mxPoint x="1177" y="570" as="sourcePoint" />
            <mxPoint x="1277.3229000000001" y="519.0600000000001" as="targetPoint" />
            <Array as="points">
              <mxPoint x="1177" y="570" />
              <mxPoint x="1227" y="570" />
              <mxPoint x="1227" y="519" />
            </Array>
          </mxGeometry>
        </mxCell>
        <mxCell id="4nu3x6ZRgFAnAhl5ueNj-33" style="edgeStyle=orthogonalEdgeStyle;rounded=0;orthogonalLoop=1;jettySize=auto;html=1;exitX=0.993;exitY=0.52;exitDx=0;exitDy=0;exitPerimeter=0;entryX=0.005;entryY=0.63;entryDx=0;entryDy=0;entryPerimeter=0;" parent="1" source="4nu3x6ZRgFAnAhl5ueNj-31" target="4nu3x6ZRgFAnAhl5ueNj-22" edge="1">
          <mxGeometry relative="1" as="geometry">
            <Array as="points">
              <mxPoint x="1227" y="570" />
              <mxPoint x="1227" y="638" />
            </Array>
          </mxGeometry>
        </mxCell>
        <mxCell id="4nu3x6ZRgFAnAhl5ueNj-34" style="edgeStyle=orthogonalEdgeStyle;rounded=0;orthogonalLoop=1;jettySize=auto;html=1;entryX=0;entryY=0.517;entryDx=0;entryDy=0;entryPerimeter=0;" parent="1" edge="1" target="4nu3x6ZRgFAnAhl5ueNj-31">
          <mxGeometry relative="1" as="geometry">
            <mxPoint x="987" y="570" as="sourcePoint" />
            <mxPoint x="1077" y="570" as="targetPoint" />
            <Array as="points" />
          </mxGeometry>
        </mxCell>
        <mxCell id="4nu3x6ZRgFAnAhl5ueNj-35" style="edgeStyle=orthogonalEdgeStyle;rounded=0;orthogonalLoop=1;jettySize=auto;html=1;entryX=-0.016;entryY=0.531;entryDx=0;entryDy=0;entryPerimeter=0;exitX=1.003;exitY=0.593;exitDx=0;exitDy=0;exitPerimeter=0;" parent="1" source="oUtlI6CtiOxXI8-v9puc-73" target="4nu3x6ZRgFAnAhl5ueNj-27" edge="1">
          <mxGeometry relative="1" as="geometry">
            <mxPoint x="732" y="571" as="sourcePoint" />
          </mxGeometry>
        </mxCell>
        <mxCell id="oUtlI6CtiOxXI8-v9puc-4" value="Backend - Microservices" style="text;html=1;align=center;verticalAlign=middle;whiteSpace=wrap;rounded=0;fontStyle=1;fontFamily=Helvetica;fontSize=14;fontColor=light-dark(#212121, #ededed);" vertex="1" parent="1">
          <mxGeometry x="1143.41" y="458" width="175.59" height="30" as="geometry" />
        </mxCell>
        <mxCell id="oUtlI6CtiOxXI8-v9puc-5" value="Frontend" style="text;html=1;align=center;verticalAlign=middle;whiteSpace=wrap;rounded=0;fontStyle=1;fontFamily=Helvetica;fontSize=14;fontColor=light-dark(#212121, #ededed);" vertex="1" parent="1">
          <mxGeometry x="914.26" y="458" width="83.89" height="30" as="geometry" />
        </mxCell>
        <mxCell id="oUtlI6CtiOxXI8-v9puc-7" value="Virtual Network" style="text;html=1;align=center;verticalAlign=middle;whiteSpace=wrap;rounded=0;fontStyle=1;fontFamily=Helvetica;fontSize=12;fillColor=default;" vertex="1" parent="1">
          <mxGeometry x="835.14" y="312" width="91.15" height="20" as="geometry" />
        </mxCell>
        <mxCell id="oUtlI6CtiOxXI8-v9puc-8" style="edgeStyle=orthogonalEdgeStyle;rounded=0;orthogonalLoop=1;jettySize=auto;html=1;exitX=1.043;exitY=0.534;exitDx=0;exitDy=0;exitPerimeter=0;entryX=0.54;entryY=-0.023;entryDx=0;entryDy=0;entryPerimeter=0;" edge="1" parent="1" source="4nu3x6ZRgFAnAhl5ueNj-4" target="4nu3x6ZRgFAnAhl5ueNj-9">
          <mxGeometry relative="1" as="geometry">
            <mxPoint x="888" y="822" as="sourcePoint" />
            <mxPoint x="967" y="971" as="targetPoint" />
            <Array as="points">
              <mxPoint x="994" y="746" />
            </Array>
          </mxGeometry>
        </mxCell>
        <mxCell id="oUtlI6CtiOxXI8-v9puc-9" style="edgeStyle=orthogonalEdgeStyle;rounded=0;orthogonalLoop=1;jettySize=auto;html=1;entryX=-0.04;entryY=0.487;entryDx=0;entryDy=0;entryPerimeter=0;" edge="1" parent="1" source="4nu3x6ZRgFAnAhl5ueNj-6" target="4nu3x6ZRgFAnAhl5ueNj-9">
          <mxGeometry relative="1" as="geometry" />
        </mxCell>
        <mxCell id="oUtlI6CtiOxXI8-v9puc-12" value="docker pull" style="text;html=1;align=center;verticalAlign=middle;whiteSpace=wrap;rounded=0;fontStyle=0;fontFamily=Helvetica;fontSize=10;fillColor=#e1d5e7;strokeColor=none;fillStyle=auto;" vertex="1" parent="1">
          <mxGeometry x="577.89" y="720" width="60" height="19" as="geometry" />
        </mxCell>
        <mxCell id="oUtlI6CtiOxXI8-v9puc-16" value="docker push" style="text;html=1;align=center;verticalAlign=middle;whiteSpace=wrap;rounded=0;fontStyle=0;fontFamily=Helvetica;fontSize=10;fillColor=#e1d5e7;strokeColor=none;fillStyle=auto;" vertex="1" parent="1">
          <mxGeometry x="330" y="720" width="60" height="19" as="geometry" />
        </mxCell>
        <mxCell id="oUtlI6CtiOxXI8-v9puc-21" value="Disaster Reovery&lt;div&gt;us-east-1&lt;/div&gt;" style="image;aspect=fixed;html=1;points=[];align=center;fontSize=12;image=img/lib/azure2/general/Location.svg;" vertex="1" parent="1">
          <mxGeometry x="1509.1100000000001" y="185.5" width="40" height="71" as="geometry" />
        </mxCell>
        <mxCell id="oUtlI6CtiOxXI8-v9puc-22" value="us-west-2" style="image;aspect=fixed;html=1;points=[];align=center;fontSize=12;image=img/lib/azure2/general/Location.svg;" vertex="1" parent="1">
          <mxGeometry x="806" y="185.5" width="40" height="71" as="geometry" />
        </mxCell>
        <mxCell id="oUtlI6CtiOxXI8-v9puc-26" value="Monitoring" style="image;aspect=fixed;html=1;points=[];align=center;fontSize=12;image=img/lib/azure2/management_governance/Monitor.svg;labelBackgroundColor=none;" vertex="1" parent="1">
          <mxGeometry x="1254.5" y="956.25" width="49" height="49" as="geometry" />
        </mxCell>
        <mxCell id="oUtlI6CtiOxXI8-v9puc-49" style="edgeStyle=orthogonalEdgeStyle;rounded=0;orthogonalLoop=1;jettySize=auto;html=1;" edge="1" parent="1" source="oUtlI6CtiOxXI8-v9puc-29" target="oUtlI6CtiOxXI8-v9puc-46">
          <mxGeometry relative="1" as="geometry" />
        </mxCell>
        <mxCell id="oUtlI6CtiOxXI8-v9puc-29" value="Peering" style="image;aspect=fixed;html=1;points=[];align=center;fontSize=12;image=img/lib/azure2/other/Peering_Service.svg;" vertex="1" parent="1">
          <mxGeometry x="1678" y="376" width="49.28" height="50" as="geometry" />
        </mxCell>
        <mxCell id="oUtlI6CtiOxXI8-v9puc-30" value="Blob Storage" style="verticalLabelPosition=bottom;html=1;verticalAlign=top;align=center;strokeColor=none;fillColor=#00BEF2;shape=mxgraph.azure.storage_blob;aspect=fixed;" vertex="1" parent="1">
          <mxGeometry x="1487" y="488" width="55" height="49.5" as="geometry" />
        </mxCell>
        <mxCell id="oUtlI6CtiOxXI8-v9puc-54" style="rounded=0;orthogonalLoop=1;jettySize=auto;html=1;elbow=vertical;entryX=0;entryY=0.5;entryDx=0;entryDy=0;exitX=0;exitY=0.4;exitDx=0;exitDy=0;exitPerimeter=0;edgeStyle=orthogonalEdgeStyle;startArrow=classic;startFill=1;" edge="1" parent="1">
          <mxGeometry relative="1" as="geometry">
            <mxPoint x="1997" y="301" as="targetPoint" />
            <mxPoint x="1997" y="497" as="sourcePoint" />
            <Array as="points">
              <mxPoint x="1924" y="497" />
              <mxPoint x="1924" y="301" />
            </Array>
          </mxGeometry>
        </mxCell>
        <mxCell id="oUtlI6CtiOxXI8-v9puc-32" value="Cluster 00" style="image;aspect=fixed;perimeter=ellipsePerimeter;html=1;align=center;shadow=0;dashed=0;fontColor=#000000;labelBackgroundColor=default;fontSize=12;spacingTop=3;image=img/lib/ibm/management/cluster_management.svg;" vertex="1" parent="1">
          <mxGeometry x="2004" y="281" width="40" height="40" as="geometry" />
        </mxCell>
        <mxCell id="oUtlI6CtiOxXI8-v9puc-42" value="" style="edgeStyle=orthogonalEdgeStyle;rounded=0;orthogonalLoop=1;jettySize=auto;html=1;exitX=1.006;exitY=0.559;exitDx=0;exitDy=0;exitPerimeter=0;" edge="1" parent="1" source="4nu3x6ZRgFAnAhl5ueNj-19">
          <mxGeometry relative="1" as="geometry">
            <mxPoint x="333" y="572" as="targetPoint" />
            <mxPoint x="276" y="572" as="sourcePoint" />
          </mxGeometry>
        </mxCell>
        <mxCell id="4nu3x6ZRgFAnAhl5ueNj-40" value="DDoS Protection" style="image;aspect=fixed;html=1;points=[];align=center;fontSize=12;image=img/lib/azure2/networking/DDoS_Protection_Plans.svg;" parent="1" vertex="1">
          <mxGeometry x="341" y="536.13" width="51.67" height="62.75" as="geometry" />
        </mxCell>
        <mxCell id="oUtlI6CtiOxXI8-v9puc-44" value="Auth0" style="shape=image;verticalLabelPosition=bottom;labelBackgroundColor=default;verticalAlign=top;aspect=fixed;imageAspect=0;image=data:image/png,iVBORw0KGgoAAAANSUhEUgAAAGAAAABgCAYAAADimHc4AAAACXBIWXMAAAsTAAALEwEAmpwYAAAQCUlEQVR4nO1de5AcRRlfIagQVMSEJCS53f5mL2AK0EooRXkES4I84iOG6e7ZuxACFJRKKUgJpSCBEoxUiWWA+AcF8pA3iISXBAgvkYfyEAsCBUYgGkzAR8IrJHfXn9Xd0z29l9vbmZ3Z3ruQrprarau9me7+vv7119/3+74plVpsWCp9yHwiJY9iTxUFg35kgG2/KAxgLUDk8Bdk8Lj6Lv/m4dlqjL1V+byb1PgXlbYrdaKZB2NPdToysjnuoPAzCaQfj+6W33+MDL6H87v9Cj8K5PfXMSxPdJXRrwBmlcbIT8HJKVIjvE0AU0IWSuuj4AsYlfdEribEmwIoIegV/001F2Fpe/8CMBDE4W6vAqCxBnJ4GU+YtJPsh2DwTEdgKAou74gALPzMhy5k8BZyj9rHSB/Or0oBLLX94bBY/s23EggOr+CRXZ90FdIr/GAEC+VS9KV5KIVMY/hhZI7tT637oBiX/SmC6QetfMX7KrArIIIbNPwQ3/DzD1xQ3sX2Z0H5o8jgxY7AEIeLvArAYv9c2A0jWBtvgP7gp1dh7xVGEczAMQqWaBgivk3hlTh7wlh3btorADNgRkKfGodm0BLyWMBMX2x/ePmwGIY8KYO6hHomrRxkFMIf/HC4VG2GUit9DZYHKFiwDnthN3sIjLVO9FQ/jhz+rifEl1LEK5KTn6n+zJo1xg/8hNN3Fgxe9TlYIaFFwQ/c4CpCnVJEcElHYIjB0ziztIM7R22Gn+qhznL3evhBBse4fXG/y4ORA4s++qWeITj0Yy2YOVgx2icADhf4hx+QG9560VOdovqAiabZlTl/z08hh9f97gX2XHKma6IXP/lmkCfM3AEZPNcRk4/BHW5f6vpnYIgF1+rf+lEO1Te5MnnwSFsmfkv4Cb6IPBB+nW8Q29zkO25fhuwfJ73Y49U606uTBRsxrE53laE9AuCwyDv8MAU/72IE3Y0GmPimpu4uGPzXp3vEOZR9t5GCFCcI6X/3qGHCLHEWrDAT3cjScEzkW306CJM+wj2uMhQ36WZgIeyNnLxfp5m+tIvBD5ppl+OjOtG7i1yvuA1Y6wZ3zooRgDHzOJzs1c5mVsibsQZ7NxtYshFXA+TwdkdgKAqOb6Yo2QUQm3zI4V6foUdhLQx4zPalyfJ24hTLvcOQ3gdubaYo2SbfaFWtG5AH6/1qFTGDWpRWq5LV2oFInfbUvoF8j93TKEtG66d6bAdCj6jxtfJ5VxlSx6o5bBp0Lz+rwHEW5hdAcsC5xXvosSadb/CMcXKl0Sj3N8jJI94hU6/Ya9y5y4/9YXmiYGSdzyO+kIPRR/zFWbXJObOc2Yl4teCwGqNp4wYrRHYB2GAHmec99Mg0poqoOiuzAJLzwL7IbJ/9Og2j6lez9ruxAHhweWyL93mONr0ow41ZNSlxm5e2Rx486f3gqOfqklwCSAYBn/Ad6BDS+pHwE8GFrQ7CgaHzOhOqDF7Cr+3xMXcuc/n+BYV+dXMKA1LK7bhQrzB5bVICj+CI3AKI4ABtOkv2nrr6trxgiyvXOCj0qVh5LfhSq/1PBtBTvRgXdiPWoE9J1lw9g69q+qt3mKunOiBph6IneFWGGVvVIBuqPKz6EewJVuIx3fL+A2plzW/Sh2ZXk/GJnmo/Lpwm52VJSwJI4GfKjsjgRmTBk8jI04LBn5DBE0jhcWTkMUHJH5GRR5DCw8jIQ8jIg4KSB5CRFcjgXumcQgrLkcHdSMnvkZE7kcIdyOA2ZLAMKbkVKbkFKfkthnCzehaF65HCMkHh5FYnf4txMHKcYJWrJS4jI79GSi5HRq5AClcJBr8RDK5GRq5FRq5DDtfH/bgJGdys+0Z+h4wsU32WfVdjkGORY5Jjg+VI4R41ZkpWYEgeQkruU/frbYExkdj+5MB4kqfZYIzc2DpBRm2xDec9bUfDknFcks8hIy+1xJgwBx/B4HS1lFiwVtJQzI2y3MxMQMNrkb7fUFcrEzBkH2L+0JDXMM+vu5qNQ94rPjeJkJyCEbyLC7oReeXMzIwJx6F1u7ZpY/wPYakkxOoblsYM16HSB6ShHK9xg4fV8Qq2VMAKNqv9gAd3md+lvqFDPVmjLCBjoehY61NIK5/RvxldcNQOuLHOv7AyCzmsMuclNWd67tYYGmWquXJPkYpu4Z5MpXmlV8RbSMnxgzvxQWoYK5/OEILTsAabYo5Q36BQKmairFjHlwxuD+VHkeeASJ/2lPVgpBtDUmkrb6jwPtQmelieqKwiedCTyjr4oKrcEupEv0D/PoWiWjxj5OyGwXdJzZaS1lj3gsxUMQ/oWM6Uh6Y383jyKTlEcHjVcdGIYThD56beiC0EUbiqiSdRICV6c45gE1Jyqvq/2CIoba2Qs6i0nWBwloiCfushaMIdlWeN9BCUHF7uT+VLdyAJQ7gd53ZN2pogCV0rhwVT1YGrEeQ0DKmS+9z7pXtwNvabhiQpbU5WIw1s1og5mIzGhm7+QQhHKosmYd2JDEGlZ3FRiqCSSz8UlKzO6gGNTS/pxx/AkPxE3kd3fvRBEpqJV6d/+CnW1LhEJq+qCdBIJnk4Zcf0ApAuaAb/aikCJiFJLk+1QQcrMOwiowmS0NnDMJxGBCcP2ATA7O74OIGDvJnKNV3HMmbkjRwhSAtJGMEbSMm8wUt6JDZ0+iep7oIH62LGW1/L86BZJOtTeXYLFEA9JElbOCQX2ujWCBQCWq2f/mEMKz+PE8FFzniyEoBg8L9sApAQRGFtIUF4vWz1aqDkz0hhL/WMWbPGjIQNus7KiaAbGTwan2/6CogAagiSyhxO39k8b9jOqM9w+odb2YSbQpI+FW6wWS6lYr2eWZvrdcWwwgSH/8Tkg1YhZ0vl02eFV1JtwnWdo7Cy6CQMZUHwmDUQkivlSsvUqQJbXdCJVi6OlWOg0NhxK9ym5CAGD8pOFc6pUQKNj+gMnhe0ul+qjhXY7Bgp7KWifMVBTiPa+r3pO5d4Q69pI6lJICObVMCit3qV+1yvG26tegEeIwNOZFN7eEPGF0SudJ+brnMczpV1eNqVCeMwn6PUnStcAOSQ9tJtjACCc9I746w7Gha0dQXoEgdvYtg9uVMQpJK7GaxqW8KhdUeT3vQrIIYC0VPdr46hPBq49C3xnuCyNilaMmdh+bPZvaFfL+/SLkJukk1Cis8mSdkcqJ3bFt6rJeqS1Zn5TXVZJsXTu03S9QbsnUY6tgKsGaoC6Tq5u1CT23JEb8s8RmcfKDwl1cl6vMediE40x+K7sWgYMgKQ1B53TrMtT1opvBKV7RiPmW/trjCSZpxRcHTBAkjmisO+2VeAWZ69+4xVxfGKdUnITm2UKUSlDsHPFgko86Gr0ORucwLm8Izkprpz2oKtDBcVBUMWfiJ42D6nlIP76RRsavkedr8L7ixqv8uT3VM3OPXJgoOLsoQs/ETBGXkqi+CgwH8egljiCQ1OKgiGdAmbKGcJG6sZMpLF4YkCDitGgANIgxmtdgylB9MYCSEcIBlpeSgxSVZlZQ/B4b28MOSc8O/P2pfhVkF+7bCnwuDJVqtLoRPkxxC+JaLgPUWJCSu6SAbmo8Qgh4fzOiATK68y353DnLbyxPEikpl/ahWInKffxVmtH6wjwE7ZVXH5tSXVr+LPmqlwI0aTxrUy6MTsDn6Ya79Lctuex3B88wBMxkRtdSbIoR06OhTBAep+KeECHbwXtLyfStxLJikumWaK58HLSGF/0++0EbcEhoIZg/iwrSkZC05y5y5XS1ZBeaKzCgZaLG73HM6J6e1pkq7DZHPFkHwfo2BjvBcNFbEyLL33s7L0Bu13T7W035kxRrASj82RnNdoItQnJ6e2shc4vp9UWY9YF6edNk6lC+ljvUoQHG4SLCSp1KLq+MGCbApDETm/FRhKxggL04wxmwCMhsyZtBNG8HRmDTF1ljmZ3axzWEeArRzkcu5TwkJCieGwylpJkgSQptRNcvoX2c83ZEXbiAaO+/ZwB4bS0fN0FZFVzWLA6GiqCOF0w7lvZd9R/6MhYTPSymnmuY2Eb5Vs9oSxivGdjZapoS9DUZF8QuCwVEXLJDs69cYEl7n3aGzllCcihduNlZPr7FEHSbAMOZkwHEvPUbKlqaFW7ke6oOA57a8X58YKIng2LXtaL8/gG0N1EOsIsNXZqtBFEiQvwgGYQBKD13AefNkRwnYNV3mKFaCo6dq18pCk8rhz1D4hWB6NfH1I8I46OTaaKLfc/Nyk3vMWAw5L24sQzhI1zblvRxxa0U0knEVBvwjJGTbz0XVpJFSVXZHDa8NafCbgEgXrBCt/2p2btjfHKjrWWQWiMfyQ6+qE5xJgWTAVOVmelnOf63KIw4KSu2SJy8E+KQdmh0tQkWOVAhBIh17ZHoWgXx8ylJViBVCDmvmfOsih5SMwgn/GGF0MGy1rLsO8yqG2b44rA3mFNghVar6oxv1TO8p1TSJKlbiUPWyuG6g259609Z5PiH1AM0s7IK2cp/II8hNgcxGHRQ36MSRn24lfZF0ek1WCej0MJblxITm/o5NvoURqjdzQZF2ERAiOlsQxUZOswcoVlf6k/eV9Xl8AMQwkISXLxdzJWlHMhhrVlWlLJp/CxbGw1D7SMQEMIYQrEwvGvG4ETrS/DWGuqiroF3IwNSTJFCRWPtz2l1WPi0/VfUpZdL9/MWIm3zRb80G/1vCXsebLwW2QRVTVbyhcEBcyEsNnFkJHLmUlqfQqmf1ZOS8pABusVzCkqm5VbPnMETP5g4WgvofkJLUSasFtyHafiow86sXKYUVBkqJk3o9zJo0TUXCXsvSOIj0jdvJNqzMv55E5SOEarAVrtTWRMrOQdfzS+c8SkmqwBilZIiIn6jZSJ99tiVuhiyAjdysNika49jMDRaBzGHR1mJvtCztHYFpVtmIWMnSo34A3UleC0Fk8ynB4R4Y81TikgTFayy/UH7pgf1VByvjaR9JqoEnSiEqqpl0zRlNqbdOW+Hym7Io0judGtlLiyIAcbWJeaqNZowXvW2I0UDgRI3gbax09D8T1j5RpvB7DuKRMhxMH29q039/WI9pHVmJ0/Eh+X4koD1b62U9Yb6aMmjmvx9pqm7WSeieMRQq/il8DNXy8tyjIkYdA+RYo5e8nS2zyeAdJwp3P0T0KOHL4d86yAK2XT9haISfTwS1SWep/aMuJOS63HEPOg1jrgq3Kyim2TgMsjkveaMJVXsgx9SpqwYBygY/iEjp+iyNFGYsjDQk5tmTYGhn8+SDUtcvVsI4d0T1Z1WeOISnTBj049BhO0amw2yCnBTdGSH6kuD0yoJ7Cja1+o/lAfSr47pQW7vS4RlVDlyE3jxyIHP5mGXJDsTBoXRRuFc4rH6z+Nwy3QU4hRVIjyREl1w/JEa3nhN6Ccyfs5tQk2gY5eRu6LGlKvo0c3rF1feSlI20b3XcObNP6dp4ZaNcMZPBX+0YLBi/Ysjdyo902+T7cGPuMVUWf5Bs3DOl3FG60/wc/+HWQs8Ht5AAAAABJRU5ErkJggg==;" vertex="1" parent="1">
          <mxGeometry x="54" y="537" width="61" height="61" as="geometry" />
        </mxCell>
        <mxCell id="oUtlI6CtiOxXI8-v9puc-45" style="edgeStyle=orthogonalEdgeStyle;rounded=0;orthogonalLoop=1;jettySize=auto;html=1;exitX=1.007;exitY=0.587;exitDx=0;exitDy=0;entryX=-0.036;entryY=0.566;entryDx=0;entryDy=0;entryPerimeter=0;exitPerimeter=0;" edge="1" parent="1" source="oUtlI6CtiOxXI8-v9puc-44" target="4nu3x6ZRgFAnAhl5ueNj-19">
          <mxGeometry relative="1" as="geometry" />
        </mxCell>
        <mxCell id="oUtlI6CtiOxXI8-v9puc-53" style="rounded=0;orthogonalLoop=1;jettySize=auto;html=1;exitX=1;exitY=0.5;exitDx=0;exitDy=0;" edge="1" parent="1" source="oUtlI6CtiOxXI8-v9puc-46">
          <mxGeometry relative="1" as="geometry">
            <mxPoint x="1994" y="401" as="targetPoint" />
          </mxGeometry>
        </mxCell>
        <mxCell id="oUtlI6CtiOxXI8-v9puc-46" value="MongoDB Atlas" style="shape=image;verticalLabelPosition=bottom;labelBackgroundColor=default;verticalAlign=top;aspect=fixed;imageAspect=0;image=data:image/png,iVBORw0KGgoAAAANSUhEUgAAAGAAAABgCAYAAADimHc4AAAACXBIWXMAAAsSAAALEgHS3X78AAAQH0lEQVR4nO1deWwcVxl/iVMECCGggEpB4mpRVVoKoUCatGni2DszO+fOXj6T2EnanJA0bZzmKJDQ2Lnq2Duzh/e+13YcJy2FCgQ0RRR6CRDtX6gSiEtUIERpC8T2PvTezFuP13Zi725Y79g/yZrZtb3z9v3mfdf7vm8AqEE0Be3L0NE1YGu0q9J70Lm71wE25TZXe2jmhiPA4yPjaaxDR9FrTQh+nkbnvI9fjo4nf3KyuoM0IzqTbaApZMPnrqCI7/7Tw/tX8Cr1Bh/iB9Hr9Z77MSmupLu6gzUbWiMOIPs5fN4StgPq3LoV6FzyMt+0hVnIhrn/OlKuO9F7ctyOV8HG3KbqDtoscAclYPNZ8bkjICyrP7MGT7DsY1sFHwUFlRoTMyLkovwwen+Nem/dpVcvgYaBRtA5tKXKozcB7Pqdb/fzWOwgSF7mEdFHQ05phKKXnuAi7ASb5KE9YRfQ7/mocAM6MmEr2Dq8tXqDr3XY9Dvf7ucKky966XNy2Ao5T2Oe8zROiF4a8hFunImxkI1wf+gY6vwI/ruYhPWBNcyCHRd2VO9L1Cpk/c53BCbvfFGlw3IET/4Yr1gmOA9eAXk+ykE6xIxxKR5yEf6lA093YbNUitswCXxUAPuefKh6X6ZWxY5jQFgG7tHeE1U6JEdYMvl5XrHgVSD5mLwQ5fNUiIFM2HqFzwiIhMunnj1zg1Ep2+IyUH/uq+bXqg24gmLB8ll/ZjWePNFLP2G48/Hko6O2AijIR9k8HWLyTNiKVgImgY8KP4QQ4tXjSDrx57jTTaA9217dL7iQsTHmBg1n78Pn1v4NWHxIXuZhmybzx42Tr68AKHgtUIoLkA5Z80zYQEIWkzBCPrsl04rJWDJPZ0F71I0mG58LCoXtfJvPKogBGosaJPONkz9JAAVtGgEQEUCHsShCK+KKkBWhEBWD6LNuPv7xZdvOP4A/f9v5bVX9rgta6UpeBosLR4C/lVcsb6IJ5hXLePHkGwkQYlgJo4nHk0+OSDEjEqSY7RD6zPWBeryqvnRuJSBkLAEA4BwQyBGLCd/L/csFlXpJCjJooscMkz8jAVKc1wmYkYQ8l+ShnLDb0WdbwyxeXVxUiyktemxKNBfsfba/QQ+w0ad0pXuFWDvFk2/UAXJCJCKIEGAkYZyJWqE1wr7VlG7+HPp8W1zG12lKN1X3yy8ENIdlfJS8DJ4U2ceux16uPumzTf4cCDCSMMZqPsLLz//ueSziWnWl3DHUCRYtDj/1MPja8buAa0AzPfcMP3iDoFKvIcU7m9yfowgyEmCwjEQoxMSz6Fr1gQ0FJ23X6G6wKGEPaIqX02P7kpc5qocZrlxr8qcSMEUJTyNB9xHwkY1z0J5wrEPXE2Iivq494QCLDjuGNFNQ9rG61SN8llcsb/MqntyJq4meaSIoOasImqYP2ASHRNGr6vNerIxbMq1oNYDtI4ssXmTzMWD38AOAPrdO83ZVOo4criKrB86FAHtS0giYfRXAYlEkxqTD6Lp0SNM9mwYXoYNGbH7Zz65Edz6a0JnMzWsR4JgjAboommAiVmgNs281p1s+ja7vSDqXgU+AxbN/4AwI2Pqhegt3f84Wmt/dP3UFiHMhYIpVpMeLIuj69/vW1S26MIVNl/12P3cXlvnK/O5+oxKWk4VQxLUIgAWFHGbQKsg7k64v4vHEZTwe08MdsgF30AasfVpYQFTpwHxl/7RYUIKYoVef/FlWQQaN417vfcsvvHpxcfgFZIfLFRQ/xiuWfxDLZz6TXwYBxatg3JVyT9nQNy06ki2gKSQDXrEQu/8beqiZxPlLIqAggkpfBX40ng0DDXUQQnD4GWwgmQ+yj9UCb+/TXgsq9aLB653X5E+xglJzVsLFJEzgOFGY/Udbtv1jxCJa768Hple+sp+7W1ApY6CtDALmZIbO5heM6X4B3jRmIxxenabd6zVEPI8Zwg75cghwlkYA0QXYO2Yj3CtkC9OVcptPGSO7HyVZEQgq9QoRP5xmgsKSCUiXRgAJ1tEhZoKN4RjRvaY2SWU/R2z/O3nFYgy45atFgL4KxvQ95H40voaBxro9F/cAU6El4jBGPXfo4mes1MmvhAgyKmNrHCd2/fahpx56NxqjI+EEbWbJoDj83UdQQi1g+upJ6GHIVthubCxp8iughKeLIS1Ufb/pxJArKBVSy3cObX2XoFCvi366JOeLr5wZWiyKsDXER4UeNM7GAUvdztFdwDSQ/YXYzxeK5D8slwB7at6O2Ew/42wS7xW8SMZsT9jB3if3gZrHg9kOo/frqoT856d5wkxZKwD/aGHq/zSlm28hTtlqdTWoeQgqZbT/vzMZei5d/k8lQI8FlbcCkBga59MCyiPaiMcd1bYsTQG2v4Eo4Eu6Ai4p/MBfPwLQD0lp9JIIqSn2CDbFJ/NvBIX6lTQwJesBLgQdUPCKNT3w88J4Y1rGRk2D5Pg3heWPCAr1R1RaZMj1hGVbQemyraBJf0Ar9PjL3if3vheNuTXTCmoeNp+V7P3exiuWd/T4f75SBDhL94SnkxDBx7ebMy23ojG7Uu5CgUjNb77bfNZVUoBBEzdRSQJciIBwZQhAosgaYVEu6Vo89rht+cALOMG6dkFMUNnHssgC0k1QWDECMrZKEjDOp5AlJNmNtWamIMDms7bbQloIQt8HgAuQgCvioITqCnB5JRflV6BdspqGwQnbgwiohBPGXwcC9OKOK0IO1xQ8jMa8zr++rqfWWx8QAgSV2n99CJAMSrhsSwj7AlyUP0r2iWveFzDogCMGHVAxAhxpoVIiCBYIiPDHyd5AU7oZmEMHeK2PVpwAFZmhIrRGrpohPZ8fsjnzOClras/hyIQpRNC+SosgXtVEEFsZAnQRhAhlv4nGbAlSdXIcG0SmsIIevB4EODNiRQjQwxFYBIkx6VGSN9r1dBcwCwGygQBYSR3AaBNYtgjC5a3IDI2JO9GY6RCzIvZyHJjEE2bvlQYwAWVHQvliAiIVIUArbc3gPKEWPPaY1m+ipkGqYOx+7jZBod7RJ7DCIoitFAF5lKJii8uNxBPufa4X1DRIi7H2mPsDgkL9rpLRUB4r4croAOOumDvVdIexz0RNY3uuE6w+8WVMgqBSP0NiqFIbMnzllHAhHG0Ns29sH9n+flJDZgqQnCDRS6uGeBBcQCKokKZo3JiXYlo2R02jM9UGOIUkZVnbKropryJHTEB2eyVEEElXD6GxrvLcs9w0yVl2PS3REeBv5xXLfw2KOL9AzNBCcw8hJuLKbTbCrXjtr6+BmgeqCWiLOguvBZX6VSEx11N6WLqwAsoXQYWKGfTamXR9xTQKmChh+tx6YxOm0/LUujBYzVAEKV/V94Nf3zW6C+eHygk7OPi9g8AU2JxsMewNc2uNDTn4MrKjK2QF5Q3yP4zGeJ93bZ1p5D/C2pNfLXRG6Xn2OOoH9Bs9P3S83PqAMnUASc4dR10XbXHZPFuRxZaQqNLGFPUjRdZQvhIbMkSOl5qOsnmw44NofI6kYxkVwj3BzYOdw1tRhxRSovppQ3OOfCnKuKIFGpr4CZJtyC3DW8C3fvhtYLq+cK0R52SLAi+dLKVFQTEB9tLT04tLlAqpKMCM2K03yiu0KQjwXymnUrLcKsmidMSf4cG1a+EHd8qkLfAlHwM2xnF/UJKsO0JCE/NdBZP9gubeK2LGMtW0AG1xGw4/c1Ee66jHf4R3JM2HUz84ho/EJHUE+JWkC+61esTNSkCiJAKgoUT1NxdfHcUTj+5+1HXd1EANWmO/DiHnrA69Fr0Madgxr8qZyV4ReoHG3Akovvuxwc9FtLv/7HO4rZx5cfR7XVOyppvD8k2CQv1Nb9I6rUPutVaA3rp4rgRMdlIsSkXfPNiB290vCpCibUGhyH7xdkPjjll7hc60AsTYnLulGBv4TXBx9NAHx3qj4/WNS3vBosGGM2tAR7IV3Hbwk3gliCr9jK6Q59w1UfIxUIjyUG9ffy0i8kWVMCTsUGhxv6iwOYENj0Ko2h2UPiUo1D+RWJmLKGI9DdDuY6Eck6AlRF+LgELnRN3r/VPn0JYPGWsA9lz8Oli0zwUTVK1juuxjm1ENGcmcMLQym0aA1dMA3V4BtkSdsDFEXUv0kOOE3ksaNy3lowIWPe3ZGs9+K6eFAdW7Doy+Pggan1hL4kR9c+kdzXg2wBZVhFujrRoBoavKfS3nx9A9F4Uc0BEp3u4f4/rsxYmOpCaKmkI24/NifmzUBzORgAhoV21wX3QrbAjPSEDeKPe5NI+yni+Ta7Rm27TatVpPvq0EXHr/aKIP2qLODwoq9VtRq6icsYU97amHnaoDPhbdPUlAaMbJH9Mdrt9vHuz4KL5OwoGvs9RBXce27EYUI8Lnks+qPZIwKN4qKNTfRT81IwmUpx7uUJrhmdgjxStgyuTrSvctd6rpTmPPaDE22b9oCQC1tJSAoGoxeFGlsVJ2Dgh3Cwr1tp7MVfARBMWSRwTs9WyEgdhRyE3uiE2ZfL0n3Jgj4byfbLSjI4r1bxteepTJNLSEHXj/GIFXLJpl5OdW84rl30YSBI8lTyn1+a7+TpiNn4DNmiU07c63htkJR8JpQZ9DhTRSVyn3mCfh6no90GfVcdzQFvAejQRHgF8lqNSbejYFVsxWpSH/WN+D+ZHYSbg/vi1fH7KgCccK15rAYucdZ9KJWyBagpqZC/YAsPMCTnxewtXQHnOB2w9+Fp9znkYiju4UVOpP2E9QGq9IHjrfc+7rMBc7kfcmj2D5T4VoHGBDjpY71fQl9H8NQe3/F62zVSpaow5wx+Fbpoij5rB8s6jSL4lhGro9/ER/7yP5ROxYfjjZAw/Gd4wzKRaFGC5vym2+Cf09FWIKk7/jgokaMP2/sC2zCazpvhufi/pzZkaeHlhh9TYmd6mt0NvbNZGMHYOZ5ONjo8Nn4LHUvvPkf0mA7cbHbwL7R03QeKla2JJuR2IInzf7Jnv4nO7d99MB9TBMxo9fGcx0w0zyxBtvXHrmw+h3B5I78Z1vCVKgJa05eksoA00hG1oB+Pyxvu34QZ1Kb9dDQf8RmIwd/8/FkbMwl+7BT+v0xg+tIHb+lqXnCVcOW1MbwV3nvgB8fYewF9vf1/Vlpe8AImD8wvBpOJg5iSuqc+meujUrAXjhF9+v9pDNh1TiNFD6unAMp7+36wOecwf+nE58B54fPAWHsqdx59tsqnv5dy8Fqj1U88KnTLaXV/oOPIfkfy7dDQezpz6P3hvMnDRnXs9CQS7TC/p792NlrPZ3ZZH4yaZOvJVLn8Q2ay7ds0TA9UbAexgrWrX/YC8iIJfufvP80BOfQe8N587UfperhYxY5AQiAK8Ar+fgoyODpzABI0O9SwT8P3D58nkQ9B/BBPjVQ7uRAs6muv81nDuDCRjKnloi4HojqBPgUw5tQko4mzrxr2yq+xZiBVV7fKbHgE8TQWp/V9tTo71w9PxZZIbqVtCpJQKuN2JhLcc04D16YybVvT+X7vnl+cGzK9F7Q9naIuB/zBognFRj918AAAAASUVORK5CYII=;" vertex="1" parent="1">
          <mxGeometry x="1823" y="369.5" width="63" height="63" as="geometry" />
        </mxCell>
        <mxCell id="oUtlI6CtiOxXI8-v9puc-47" value="Cluster 01" style="image;aspect=fixed;perimeter=ellipsePerimeter;html=1;align=center;shadow=0;dashed=0;fontColor=#000000;labelBackgroundColor=default;fontSize=12;spacingTop=3;image=img/lib/ibm/management/cluster_management.svg;" vertex="1" parent="1">
          <mxGeometry x="2004" y="381" width="40" height="40" as="geometry" />
        </mxCell>
        <mxCell id="oUtlI6CtiOxXI8-v9puc-48" value="Cluster 02" style="image;aspect=fixed;perimeter=ellipsePerimeter;html=1;align=center;shadow=0;dashed=0;fontColor=#000000;labelBackgroundColor=default;fontSize=12;spacingTop=3;image=img/lib/ibm/management/cluster_management.svg;" vertex="1" parent="1">
          <mxGeometry x="2004" y="481" width="40" height="40" as="geometry" />
        </mxCell>
        <mxCell id="oUtlI6CtiOxXI8-v9puc-56" value="Helm Chart" style="shape=image;verticalLabelPosition=bottom;labelBackgroundColor=default;verticalAlign=top;aspect=fixed;imageAspect=0;image=data:image/png,iVBORw0KGgoAAAANSUhEUgAAB9AAAAfQBAMAAABoFtlKAAAAFVBMVEVHcEwPF4YOFYgNFYgOFYgNFYgOFombckNBAAAABnRSTlMAIYXeUbM+X9E1AAAgAElEQVR42uzdS3fbRhIGUJMitWZGDtc6zgzXzJwEayWRuWYe4loWJfz/nzB5Taw4ehDongmq+t5zvLcK/aG7Cw3wzRsAAAAAAAAAAAAAAACA/6PVTA0AILp//Ovmh3crdYDE5j92/c+OPygFpPX+15j/4utL1YCcvusfkXRI6aL/kysVgYT78/4TKzWBdD7NeX+nJpDN7i9B729VBZIv3G3TIZ/uqaDfqwtkct4/aasykMfs6Zz3D0oDeayfCXq/VxvIPqGb0qGFCd2UDnk8n3NTOmRx/kLQvdwC+Sd0z9IhieWLQfduC6SweTnoWxWC+BYv51w7DjJYvxJ0r7ZAAofXgv5BjSC6+Ws5t3aHBlbu1u4QX/d60K3dIf3K3cfjILzdCUG3dofgDqcE/Ut1gsgWp+T86Lw7hLbuT7JSKQhsc1rQL1UK4pqdlnPvqkJk8xOD7gEb5N+ie8AGkXWnBn2vVpB9i+4ULAR2dnLQj4oF6bfonqRDA1t0X46DBrboNukQ1nJA0G3SIf8W3SYdojoMCfqtekFIQ3Jukw4xLQYF3SYdQjofFPRewSCi3bCg71UMsm/R+/5WxSB/0H18AgJaDgy6TToEdD406Cs1g3DWQ4O+VTPIvkXv+1s1g/xB94VICGc+OOi6cRDO+fCgr1QNglkPD/pe1SCYTa8bB+kNz7mzcRDNYkTQvakKwSwFHfI7GxF0v8AGwezGBH2rbhDKQdAhv25M0B2ChVDGNN114yCYpaBDfqOa7truEMtuXND3KgeBHMYFfatykD/oTrtDILNuXNAflA7imPeCDuktRwb9uFI7CGPk07W+v1Q7CGM3Nuh7UzpEsTqMDrriQRijg+75GoQx9uma99cgkLFP1wQdmgi6B+kQxnJ00L2/BmHsxgf9UvUgiI2gg6A/r9urHgRxGD+jf1A9iGExPudOzEAQs5Kge5AOQcwLgu5BOgRR8BjdG+kQxbog6E7MQBC7kqBfqh+EUHBepu8EHYIEvStI+l79IIJZSc6dmIEYSh6jOzEDLQT96MQMhDA/9o7GQXbLoqW7EzMQwkVR0HtBhwh2ZUG/UkFIH/RO0CGCTdmMfqmCEMChLOh7FYQAurKgOxoHAczKcu5oHERQdgK2Pwo6RAj6sSzpjsZBAPPCpbuvxkEAy8KgOwMLARSegHUGFiJYCzoIujOwkMCu8MCMM7AQwKZ06b5XQ5i8Q2nQt2oIk1e6cnfYHaav9Ki7oEMLQXfYHQIE/dh7fQ2yWxQv3b3VApM3Lw76URFh6pbFQe8VEabuvDzoK1WE9EHvBB3M6MDfbl0e9CtVhIkrfnnN62sQIOjlM/peFWHiNuVB36oiTNyhPOi3qggT1wk65NcLOgi6F9JB0L2nCo0E3XuqMHEzQYf8FhWC7mcWYeLmFYLuhXQQdODvthR0yO9M0CG/8xpBX6kjCDog6ECEoF+qI+QP+l4dYdLWZnTIb1cj6Ft1hPwz+q06wqRtzOgg6GZ0EHRBB0EHJqETdMivRs59BhZamNEFHczogKADIYLuFxyggaD7sDsIOiDowP/YTNBB0P0mEwi6D7tDO0E/KiQIOvC3Wli6Q35zMzoIuqCDoFu6g6ADgg4IOiDogKADfzgTdBB0QQdBF3QQdEDQAUEHBB0QdEDQQdAFHQRd0EHQAUEHBB0QdEDQ4WnXNzc3P3wj6II+0tvr6+srOZq22Rd//B7olaAL+uDx8777vQD/FqYJW/7pp39Xgi7og2K+eVyC7+Vpqi4+Ga1fNViDc0Ef67tPanAvUVEms2N76/eln2QaZ9H9pQofZGqKnvz+6V4VzOin+NzoiaJ7csR+Jehm9Ndt3O+ib07vBN2M/prDM2WwTZ+c2bNj9k7Qzegjx05/JVkTs37+Yj0Iuhn9BYsX6mBKj3NTbuuJep2gt3RvfPtiJUzpMXbozSW9TtDv5NwjtknqekkX9Po513iPNby7u1aSPhP0Wvvz31xK14SsXx+6K0EX9L/k/PBqKazdp+T169XKyRlBH1Ksjb5ksgXYz34S9JM1Mo1tTqnFlXxNxmnvZn4v6IL+2PuTarGXr8nYnXbcq4m+iqCf6vPTauHMTKgtejNfnakS9BYG97zTr4i2XO30mOoG/baBQXPi7NDiu/mTvTefPIC/EnRB/83m5GJcSthEDPiqyl7QBX3gmBH0qbgY8P7lStAF/fQN+i++lLBwq7AGzj90gn6Cg85k8qCnvz9XmdG31oAfF4Ha7pO5PQ+axa7c9Vqf0ReDiiHoEzEbtlp9EPTWe5YHAyb//Tn74r1K0C9Tl2jot+9XMjYJg7+1kHrxvhP0yhOD11qmcuGOvoj20VrQa98KBT3mSiz3e2xVgp55sTp4AdhdyljQoGe+Rwv6Kw7WN0FdDB/IiZ+YnAv6iz63kYnqzCa0dtATN3Q8bGxpRk/8/WdBf9GYhxIOu8e9dnkPMAt67QndjB456Gn7cWeC/oJRx4nM6JGDnrUfV+OnWtJ+VGXZW/21FvSs/bhlhaBnPVF08uejBD1R0JP24xYVgp51tXPRC3p7QU+69aoR9KQje2xp/CpT7KDnPBYyE/TaA8WMHjzoOS+g32+ovdYR9OBBz/mIzQdmnrER9OBB71zBqkE/pgz63E6m2Rk95SM2M/rTDoLebtDvDOhWgr7Usmg46Bmn9ApB37v/mdFzBf1BOdq4/V30gt70yN4rRwtPI4pOFwh6gpGdb0ov/5ZUd6Uo9ujZRna6Kf28K076yoTeyrdEW9l+JZzSK3x5Il3Qy+YC76NnCHq6Kb3ClyfSTeidoCdQ+Ab2nXJk/+5EWX/Sd90nYn40pT8uh+9OfKL0zV1BzzGy7wzr3GucnaALer4pfXYsXbnfu/Mlf9rY6BSWa6la/uWJZM+Ni08QCXqWtWquKV3QKw8PQc9yJXOtVYsPzNya0PN/ciyi8ve1UrVbNqXV2JoGUj9tbDjoqab0ndte1Qn9QcKmMoV1pvTHQ7uwHKm6zOWtyeOdhE3DqnitmmtKX2s+fXRRPjYEPc2mNNfgXms+VZzQvY6eaGTnuppngl5zQvdOy2TU+F3BRKO79KRgoi7zoqswMvYSlmRkJ7tvL+xJqy1uHHWf0j6s9PW13+axNFP64mgX87tDlaCvZCzHFJZshVbYgEr0TkuVPZ0TsLl2YnnORZR2mvMcda8yoedZ6rmgyfZinW5Fvd7N0cG4bEFP04QqPFewVQfnZTJf0TSbMZ9Iq9i6cV5mQi5c0j8FvXO/e1PlJ2vSvcsXXJ3uapohvlaFehO68zIJg/5BOfKcEVzXCvpKwCZiNq90TZMc/iwrR5Iu86zWmLgSsOlc1M4y7fGiteRoXJbXr5du/gkdKl3VHIO8bHd6b0j4vkz2q5rj0dJM0N/U2s15jD4pu1qX9d59L8fBuE2tEbGVrgk5q3VZczxb2jTfp1hUGxB76UrYeen729YXODl2LztBT6neDfzY/DDPsKaZ9ZZ4OXXu4I9ctD6yz9z4Bb2BLuuy9ZF9qDYcPF2blBqfdk80oxU8W0pxXmZebzR4dy3rWi3DpV00vqKpeNvfylbWoPdtB73x+5ygN7NYy9COK9ijJjgvc15xMFzK1rRUvLYJ+i+bpm9z9Tqzmu6ZL26Cu/j4oCc4L7PsBT2vXa8dV6UaV1pxmu6N7Mvi38bHT2rxv2JesxXX30rWxNRsu8ffp84bblCsa46ErWRlvo9HH+0F39aK/xj9UHMkXEnW1NS8vOHbcYt2N6XLqgNBrnLfyO+brUb4tWrNVpyme/at2UOzQY/enqi6hdN0n6Dzqld432rQo/8YeNWmbH8rV5Mzr3qFo/ekNq12nw7u97pxDQ34i0Y3pXVv91l+tCaXruolDt6UOmu0ObGrG3SpSn+Ng4/4sQ+Z7mah/+xZZwOnG9fGyx2fvf3s2+ubL9pcyNR9iK4X18JFvg8Y8W/evb8p3LF802YPUtCb7cZFakvNPru+fnfz32VrV/Qbiz9dx+1A1X2I7gBsE0EP82jl+vrbL7oKEf/Ynvhn1KyfVR4CMtVAN+447bX7r1Gcvf323Y+//3frdSd+/vf1u5BZ/w97Z9LWxq6E4bQxWdtAWNsMXgMOvTaT1w6D14Q+7v//Ey4mnJPkJgw2VVJV6X2f5y7u5sRI+vTVIKllm+g89VxENc5yE/Xpl/UfRV4Li/yn1NuTH1r3pHfpyP07mjKJ8GEJqxXopfSq/1LyulXh6T97vXf2yZPWpXd6anFGS1Jt/MjtSeXndzeaIv8lF2jurpdad9Jclx4PanGFTLQ1K1vqrbq6G+ur/BdfH9/t9XxoXTqioxZXRjXOWOj2q8qbNinN3UHPgdSnBUR0oJGjGZvp85txm4vx6dD89Ev/zdTiSqm6WnpRqrufT+XPWr+2XZXblP6Dj1BUIdU4O7H7+bhu89OMDwqK3Lmjape59FwbMfPWDidmS9FtyMmHv7ErPdez/H/TVt3aYmHz3ov08VfeizOM+GRnr8dctRa5NTj3o3BzD+mqcXnDt2q/tYo9qYv/iQP0VE41LmfsXo1ay5zYmvrP4n8gtbiSKq/ZErXuvLXOiSUpiO+KHJcpSugtMvchdfFWIrU4y3RCxO5OZG5J6vKR+zFqKqoal35j745aT9iQuvyYTVCTZcS9MPXTcf391hu3/YBVWGpxpSXpSWP3/kXrkWFuqYsfoGh40t024jcbUp6b6F+1TmmGeQ1QPnKnFldakp4sdq/O69QXzSW7UVlfk5Q/JjxAS6ap5k6nvLqct4553KFOLgPFcdTirCMfxCWJ3Xf2W8d2/sx1rusu8pUZUnTrbMsHpQkSjqu69c9j5nGQxwjlR48U3TryR2b0Y/e9eZq3HlOk6gcx5nyGkqwn6fKKUY7dtw7bSGSI3+Ujd1L0EpN01di9OqzbWDTJ35ab+5pyMJqka27vWzdtPE7T3laXb6mSojtAodWidr+he1e3EWlOJ763dlJ0+yjs71q9li8xZf4k9YSmLp+skaJ7QOHgiUrSWd20kUlm6go7Oym6B6Y+IrnAdv5MIlNXyNVI0T2wIT/xCg22/TY+i57Tjf0IFTlA4W6yeOzeqdsi+OZzuknRXaAgooHsL7xoS0H/zLjCsbgGDbngs/HYvarbghgoz/YuKXqpKFRnFrZ/nmmUX1lUaLKQojvBdJI+bUtDtSbnoSIDfjb5e6Gf5uglZx/FLYU8jRS94CRdKG3rtGWiF74rBEh8XbHgJL21uiq9VN+1wmGF3zpDQQUn6QKzr/CenR8anRehO1b3dEiByXhupy2boYapKzTXeC6u6CT9oxWa6qotna8KSlc4knCPftygcKHpgz2X6qKFB/FXpjj/WjjWNvqdOTJfdtSln36nuVY4xlK3rRqR/0D4kViaa4WjcFX1A8XYPQT+H7IvR9Jco8FmZgVUh/6/wSLIiWAOTHOteEZmkvTuPuL+PVGXU7pCik5zjQbbeqZDGe4PpQ/jbedQeIMt/stw62yZUq/J0VwDBYEdrf4rrtD530tyInOscKeB5hoNtjUaL5ySeYlTo/kZzTVvWNjtKcO9kqgLzLFC+WOAcpxh4HAkZbhXt83eh+eY5hqoVGRXS9JJz99Q+kfrXgqnongWkiR9xWVQoWTtOHkq/4tm6IYG20pJehcZqytdIWSiueaQecZ1gM71le7os7mgScbIroOE9WNlhb7KMapxSCfbjo/OtQqcyhs5kbvLBpt8DrfIZTUoPUVqxmfRid1XyCnx8yTxskKKzrE4nyg46ztSyi9IN0nzejPPNg4GY/ccaxKdJ1L6NpE7PDNKvxZ41HktpfcspOgci/OKwhnJCTq3oXSFUiuRu1cU6jUzdK7Cyt9mk0/RuYpO7P7O8A6dp1P6dtqpBdPIr4aHV3XOa69r2+mqSpffw2fohdj9PUk6fv4xTlZRunyKLnA/HrIhX5odoHMLSpc/lcSFFs98TpbJnSPUD7PCQ3Lytbgj1OKXqptq4+ecjIinv3tmp+L/NmpxjXy3tZfGYFB62pyMyJ3Y/Tfqv1XjOjUaTap0+UiNyN038kWbY3SuyW2maUUqxO5vVePQufJG+ie7RO6gHLs3CZr1KP0NRkTuoC3D/6/GIU1hZm93U4jcQb0+O9Ou6xfPIPnuzTl3Yvc/+K4bRMLbjzRuKG/e4BDpMK/5rW4zRZUKvHXuXLwWh0wCIO65PXSurvS06RivQhK7vxpYbiBJJR6S1uKI3EOg1orh4Kser5XHxI/LoBFi91cCPRromdrpn5UmFHwjHWAv0HkKviWrxQ3QCLH7i5FeNUeLmdrpaSt/4AYVB6CBnq2dLvzP3KOQIHQUVgaNtWzt9M1E+wm4oxbv/fBCXAoWPf1aXMOXmIjdX4zdtxBhmnb635QuHEwRucdBukD+gAQT8VU/Re+hjzjMazTjMkv/24sz4nkY0EqH3AyVa3Ez1BGICsG4NfWBbi0OcYSCrrdfpU80a3E8ORGLTb5/6Ffpmin6AG3QSgcbnOplYTTRo7GNXmI02WRrcUcoIxgd5OKYY61a3ARlhGulIxfH/GyC7RK5A630sAxUanE00SnHgS0mCkKniR6RaYHqaMbN3iNn/Z+cP/7//fHYa5NNtNZCE51ynHOBn+4N+703BqS/s3foSPAP8rU4muiU4xxLvL/asPS2rnzI/R/pWhylOMpxLjV+MqzWHpydQ/s1jGPhFJ0melACi3xxINARrs6NW/tA9mWBHpKIyW5MI1/cTuTGyLbYJ5JRGaU4ynFuGF+fyY/T5Y1VsTcXNNGhtHJcc3qtFnx2D8fRzx1QiqMc58HK735k5Xp5ZnStU4oLTJCV29wdqBeSek+l+Ju4WqcURznOesS+9PIqzYht3S3z9YBypxQXGd9vxy1fyTm9Pkin8idbr87v6oBan6CGyEz9rsyl0n6E7EmDzuU/dnk4jyZ1Xnmmw2ZV5s31ZZYxW0q9u3cTS+r01qJ32GqnMj89OEtt5j8znuX/Lg8DSZ0LqtHZ9CpzA0Xip/PwMaT+HSVEp3Yo85NLI72gnfMgUqcUF55dfzI/69kZvhBSb+itxafrTeZ9YwPYf5S6989hDNBBfEaeVqQ5mT9J/cq5oXPMvQQcddgWZ0bHsH+BoQOWLmQ8Z4YHsRo5dnQ0UAROOmxD68WOOYdlwDQeVuhXB+O4RW8NLGP/WvrCyVp0marTWyuGmqhdKlV3GL9TiiuGbRyn3Pide2vlYPnQTOMtg6z2MXQwytTsMrx1OJqu7v5yWAZLpwi3Lo5MfcbqL4kRdi5r6mMMHYg238XpxPOI7tcYOmDpbxfhbr3vnR5MndOvWHpmO/dfDK4cfJAVQy8OUyc9Gr2PK6XkfI6hgzHsXG2p28UwyKB2DzF0wNJf4GQSZ1T3asMPTWHoWHq2tdc2Fh54laL3actw+H7Pqi/S0k1Yz+Is2LA+hu9Wn5SbsOhLxEDhvQ4Vtv9Xk+O2EGDpvxEpbP/Jztxkot5jyWPpeRL0y6AjW00xdLDDKK/vLPphR7ay9yJ0g6EXS97C+9e4K68y+CDFN9Y7lp6D4+Bja+wqMNfWsPQsDMMPrq335Gas9pLJthaLSBinGDoUbemlnMW8wNChYEt/YCPF0CH8SizpweEOhg6FWnpZBze6NYYOJVr6cWEDXBlQ+oB1DiOCyIh1kFJzJbCRRRbpLXMMHcqy9AmFEG6zQHRLb4q1lpyfcmkmrHFIuQpLXnEZX408ZoXDkipR4X1ctLNku7dKaw2eSXMk+3RS9ijnUvqMBQ5PpLlP+VB8ppjnKTlaa5DS0NH58i2KDM/DDhh3eMrQu+g8ndKT85VRhx/sovNE9JIrveGhOEiYoaPzXJ5OJQ6eXSaBoT9gK5mUTiUO/k3R0XlgpRNJQTJDX6Dz3/iSTOY1Z+IgmaGj82xK50wc/Iu6oVP2/ZNUb30MGGpIZOjo/G9sczsVYhk61aA8484eCykNneDxBRIcOz5ilCGRscwY4pdQf9anYYwhkaHT3XmFOYYOMQydYtCr1GRNEMHQ0fnrKH/ZgdOvkMTQOa3xFh0KJODe0KkFvc0mOy04N3SeGH4PX7B0cG3o5T7gvhoXWDp4NnTM5J2ottOPGF9QNfRvjO97p0Gxnd5QJwFVQ+dBwvfTnWPp4NPQ6eCuQqfG0kELzYdlFpOKAV4BxbelaiwdQ6exZgXFbzVxVRVD12LI8K6KXpONV+MwdArudqZDscmGpWPo3GQxo3S90vt3RhdDVyi4YyBr0cXSwZGhU/tZly0sHfwY+oTBXZcplg7C7FKIM8gISwcfhk4h7kPTUmPp4MHQuRVptCCHpWPoJOiG2MDSwb6hzxhaqwU5LB1DJ0G3RI2lg21DJ0G3nKZj6eVBgl5imo6ls5JI0AtI07F0skDelClggjibXBjbOgk6y0gMpc+3HDGyJaF0+mrAyBpPrng9DkPniLsxRlg6WDR0EnQHs4SlY+gffvSVgXWQpvMgLFZBgl7ChoylU+b5CHyVRX5D/qTxhFw9Y2Sp8tBZM4XKUVhOKRfCpkI4yNFXHVQ+nI6lY+jrwvcBlJhi6bAeGrVcOmtqeTp1U7Bj6ATunhIt9mUMnaTPHLtYOthI+jAI1eBd4dQDt1XD0yVwJwbjAQoMncC9iOAdS8fQCdzNoRC8M6iYA1FgAcH7PaMaurBD4E7ChaVj6ATubNDAeqHiHid457ZqYOTvNx8xqF6D9wGDGtbQxau3XI/wG4yRdIVlg8DdL5tYOryTOYG7Y8QvI3FohoIOgbs95M869RhUDJ3YzxzbBGSQwRFqXpVJSiUdvPPEOzkejdgicq8ZY4qhs0rsMaXIAokXSU0bNkP0XlNlgTfWCCXbAEg30/9hSKOxTcWWQgvbdXxqsjsqLVxLJ+YjuSuy1MK1dEI+cjuTtZY5KRi8SIfUjqkkByPgwwaKDc5Iwijh4AIFTCZZWCB2MQFmk3JcfOZ4QCCEz8fdM6JR2MQCmE8uJ1G+wQGKjtBmDCjVGwzdIrItNq4nBWHK/s+U8sRn/NoNrTWCNJKx+Gyw+2PpZGNUbmiteQzTRFtsRwwohRsOuceP08jHCPJ487+EQI2EjLINZytssskGDr/wmVwuKCPKcaAT4S0+kaIHLb6whbMaOCtTgKVzOo7FwGL4H3t30Nw0kgZgGDsyZ2cMPme3WJ9hmdI5mc36zFKLzyEh/f9/ws4QJgsMOLLU3eqWnqfmMDU1hWVZrz+10w5z+Pjl0vl0LbgWyrT3cRwPYn4UZ6/MlN/G/UClajE/ils7naV56QMY/rByb+eN3A2bRZyBXrkzLzBxv6BqoBepbb3CxHy/dzanvjjzzRYruBBunM0yRdwoceFs1mlpoBvp7t2nb2+gu23zbj6DD2pcAka6b7a4Agx0I92XGXxMY6DP7g197WzWpzHQjXQvtDd6A90r7Zst3ue9z89xkXbhZNZmaaB7rf0offo2Brq7N2/qXnuvvVW6H6W7mzPQ5/m27kfpldka6Ea6H6VPX6ztr+3Nwsmc00h3AzfTO3fncl4j3bfS53nnbqDPbaRfOJcVMdDdw/lRule9+6tuoFcz0iN9LGMb7Bzv3NfO5exW6e+cy9ndubuNm+Eq3S94n9+bu4FekVi/8/fOq16L597bjXT37u7cu7p0KmsS63tMtsFWojHQZ2nhDd6du1u4Gdh74a3VbIZ0K+fe3R2c9/Up2Ll3d+du9+v0Lb3HW6n5vqKR7t59SqzQjXT37j6R8W1FI92vjpuAODsh/Qy90rf51r37TET55tqvzmOl4nzPoXXvXv7N29u+Hr/V8Pa/TmO1fnnbPr6Ofb1fO48T9uL6gVd5Gq/jlVPBUX6tDAAAAAAAAAAAAAAAAAAAAAAAAAAAAAAAAAAAAAAAAAAAAAAAAAAAAAAAAAAAAAAAAAAAAAAAAAAAAAAAAAAAAAAAAAAAAAAAAAAAAAAAAAAAAAAAAAAAAAAAAAAAAAAAAAAAAAAAAAAAAAAAAAAAAAAAAAAAAAAAAAAAAAAAAAAAAAAAAAAAAAAAAAAAAAAAAAAAAAAAAAAAAAAAAABQg8Wz9cM/z86/8eJ6qKvHP+vhcfhyir+c8cX5+fW/P1xfreu7Zs6/fnUflflENh96+U+Eh/5Xr0d+H+1Ce2j4yx97CJn8/livrocd/qrfa1bORffjM/OqstRf/OSaeVfk0e77Xa4fIzz0rt9DD37cf3w4/gDt3Tf/DPX4R3313y4HPYHnI524aL49sQ//9vvpub+qqfPfPh/53feXS9teFHm42xFDb3t1M/iG6//53YXQhhHcrUd4c74r56L76TH+rZ7Of/npkxB6lIk+PPRR2hZ6h9DbekpfBqEXfusu9HIneri7rCT0g9CFLvTeoYf7Oj6Re3nkIx6hR1mjC73na1ZH6OFTDZ0v2tZEN9FN9AGhD/yJRB6bY09A6EKPEvp6N+nQ78vvvGmFLvT0E33aoYc3xYd+9JbKGt0aXehdQg/rwj+QWx4/fKGb6G7du4T+sezOnx2EniP09dxDn/xEL/zzuCcGutCFLvRuoZc90p8Y6Nbokdbosw998rfuZY/0VTDRTXQTPUrotwWH3gpd6EKPE3qhsfxhE4QudLfukUIvd6Q/efVYo1ujR5roh+mHHl4X2vk2mOgmutCjhV7oRtgmCF3ouW7d5xB6oSN9L3ShZ5vo7RxCDyXWsuxw3Nbo1uhu3R9egU7He1NgLZ1mk9BNdLfuXedihBd6rAMXepzQL+YeevUTvcl3jcV1ELrQrdFjh17cSF91Ompr9Ehr9NmHvp7JRC9u18yhNdFNdLfusdfopX235SzTBSp0oc9qjV7YSG8OQhe6W/cUoRf19xXuOx6zNbo1uol+2q17SRthm2wXqIku9Hl96h5K+o2wO6EL3a17qtCL2Qi7DEIXulv3VNEUs2um+8VqjW6NLvSTJ3ohu2ZWwUQ30a3RE4Zexkg/CF3oQk9461/6wA4AACAASURBVF7GrplVELrQhZ5yohfx9yifcsat0a3Rhd4j9AIm5Fkw0U10oae9dR9/10x1b0xCF3qFE330jbB7oY8R+juhzyz0u6oO1xo90hr9tdBnFnq4GfVwd8FEH2OiC31ma/SRN8KefLRCF7rQe030UXfN7IQudKHnCX3EjbAnD3RrdGt0oX+2ChWN9EMw0U10oWcKfbSNsD2OVehCF3rf0EfaCLs4CF3oQs8X+ki7ZjanH6g1ujW60PuHPspG2KbPkQrdRBd679BHGel7oQtd6HlDH+H4ew10oQtd6ANCH/zCZxro1ujW6EIfEnr2XTPLYKKb6ELPHnruXTM7oQtd6PlDz7xrpu9hCl3oQh9SUJt318yh51EK3Rpd6IMmetZhuQomuoku9FFCz7hrpmmFLvRRQ1+E2YaecdfMNghd6KOG3sw49GxPoul9iNbo1uhCHxp6tl0z+2Cim+hCHy30TM+iCUIXujX6eKGHmyyHuBP66KHfzD30WU/0PL8Rdjng+KzRI63RhT7v0HPsmjkEE91EF/qooWfYCDvsAIUudGv0CKHflj3QhS50Ez1G6Ml3zWwGHZ01ujW60KOEnngj7GLg4QndRBd6jNAT75rZCF3o1uglhJ70qTRB6EI30UsIPbxJeHT7gcdmjW6NLvRIoSfcNbMMJrqJLvQyQm/TjfSd0IVujV7KRE+2a2b4QBe60E30aKGn2gh7GH63IXRrdKHHCj3R3HwZTHQTXegFhZ5kI2yUa0PoQrdGjxZ6ko2wmyB0oZvoRYUe//ksmhjHZY1ujS70iKEn2Ai7Dya6iS70wkKPvmumCUIXujV6caHfRD6undCFbqKXF3rkXTPLOAdljW6NLvS4ocf9e5QjDXQT3UQXetzQoza1CkIXujV6kaHH3DVzELrQYzPRi4tqE+uQrNGt0f9M7p/PhB7pVMY6pohXhdDrnui3i/Mo1kPPm9AT7JrZBqEL/bNPpbxk1ujxn9UiCF3ohYVuosffNbOPd0DW6JWv0YVeZOjDPtgcdkpNdBPdrXuu0GNcinuhC91Ej+0s7g8xLgt75xG60KMM9GXtoT+PG/rtWFeiNbo1ekpCjzxCXwYT3UQXevGh349zQQhd6ELPGfrAXx+3CUIXujV6BaEPGulN5IOxRo+0Rv8489BN9LgbYbfBRC9yogtd6N8/tQHf+22C0IUu9Dom+oCLYi90oVuj1xJ6710zy+hHYo1ujW6iJwv9Nu+0MdFNdKGPEXrPvJZB6EIXekWh3+e8FoQudGv0cULvtWvmLMFxWKNbo5voCUO/z3cpmOgmutDHCr3HrpltELrQhV5Z6Cc/wUUQutCt0WsL/eQrY5/kKKzRrdFN9KShn/jr45pgopvoQq8w9E85rj+hC13o44Z+UmPLIHShW6NXGfpt+svPGt0a3UQfO/QTds2cBRPdRBd6paF33zXTCl3oQq819PZ1x2PYBKEL3Rq91tC7jvRFwvcaoVujm+ipQw9vUl72JrqJLvQiQu/26+OaIHShC73miR5+7XAEe6EL3Rq97tA7/Pq4pAPdGt0a3UTPEfptqhFjopvoQi8n9Cd3zSyD0IUu9OpDf+pHbK3QhW6NXn/oT4z0s7QPbo1ujW6i5wn96FNdpH50oZvoQs8S+tFdM1uhC13o0wj9yK6Z5ANd6EK3Rs8U+pEXa5/6oa3RrdFN9Fyh/3TXTBNM9NyhH0x0oece6TuhZw+9FbrQM/+ILcNAF/r3wZno1ujp3Ma8i7RGN9FN9DJD/+FIXwUT3UQX+qRCvx9noAvdRBd6ztB/MNLzPLDQhW6NnjH0v+6ayfKw1uhCN9Fzhv6XjbDbYKJbowt9cqF/t2tmEYRuogt9gqF/GmOgC91Et0bPG/o3I32Z6TGt0U10Ez1z6F/vmtkFE71PbeuhvS2ELvR80a2C0AfWtj4t+sWf/7tbd6Hn2zVzEHqvE/j+76+ur87Pez/u+Yvf/sfe3XQ3bQRgFB5DnLVcOF37pCHr0IDXhrZZ+9AD64AS//+f0IRQyofT2NJoNDN6btlBYxLp5s5LRFB0G33wwbz5EqNn6V6yKtHvb52Li/e3nNxxevr2nsUDfPnpt+9uf/H7939frLq+qqIT/fD3OuFL1iV62z7wExe7aaN9HIlO9IOfmvmV6P2PKu3dj/3vt7tf3RKd6ImSfvcltqPtiuilYaMT/dDrdpbw9VZEJ7qipxd9u2zmaV+P6EQnenrRb4b+N5iITnSijy/69vWW6ES30asXPS02OtEVfQKiKzrR4zAnOtEnIPrVSKJ/mi360kQ5uhOd6FMQ/dNIokfgXNFtdKLXL/pG0RWd6ERXdKITneiKTnSiKzrRbXSiKzrRFZ3oik50ohNd0YlOdKIrOtFtdKLHLnpLdEUnuqITnehEt9GJTnSiKzrRbXSiKzrRFZ3oik50ohNd0YlOdKIruo1OdKIruqITXdGJTnSiV1V0T8YRneiKTnQbneg2OtEVneiKTnSiE13RiU50ois60W10oiu6ohOd6IpOdKITXdGJTnRFJ7qNTvS6iu7JOEUnuqITnehEt9GJTnSiKzrRbXSiKzrRFZ3oik50ohNd0YlOdKIruo1OdKIruqITXdGJTnSi11V0T8YRneiKTnQbneg2OtEVneiKTnSiE13RiU50ois60W10oiu6ohOd6Ir+aCyT3meXRCe6oo8g+nX4kDTMRCe6oo8i+tOkt5mNTvRRi95OVvSESV8HRSe6oo8k+jzVpbp9LaIT3UYfSfRwluhSNUQnuqKPJ/qTNFfqYwg2OtEVvRdPe4geLpNcqSYoOtEVfZR34F70WYoLdR6ITnRFH1P08Gz469Q2ik50RR9X9LBKdZ1sdKIr+niiz1PdYYpOdEUfT/TBn5pZEp3oORS9nbjoAyf935chOtEVfUzRB35qZt1PdBud6DZ6HNEHfWrm66soOtEVfVTRwx8DXqSG6ERX9DxEnw33PSheBqITXdHzEH24p2bapq/oNjrRFT2W6IM9NfNN0BWd6Io+tujzBDcX0Ymu6COLPtBTM0uiE13RcxJ9Pvy9ZaMTfdSit0Qf6KmZdVB0oit6VqIP8NTM9y9AdKLb6OOLPsCtuyY60RU9N9Gjf6+ZH96+jU50Rc9A9HAc+fI0QdGJrujZiR7iXp2XgehEV/QMRY/6LzS1DdGJrug5ih71QdifL46NTnRFz0L0iE/N3ISg6ERX9CxFj/jUzJLoRM+s6J6Mi//UzK67iuhEV/Q8RI92/y6jiW6jE91Gjy76bBXlcu5604pOdEXPRfRI32tmTXSiK3rOokf5Etvut0x0oit6NqLH+BJbE1F0G53oij6A6BG+18zLoOhEV/TMRe+d9JuG6ERX9NxF7/3UzEOXhehEV/SMRD8a6Iay0Yk+atE9GfcDl30uysNiKjrRFT0n0WfD3E9EJ7qNnpPo4bjHRVkTnejfm9L3d75S9IFE7/G9ZqK/URu9dNHXeVwxRd9B9+810wRFJ/q+t0QJnlQteucHYT8GohP9ezK5Yoq+iycDfPYmOtEVPTPROz4I+79/amKjE13RcxO901MzNyG+6IpeuOht4Z5ULnqnp2Y2RCf6YZ/9Uxbdk3E7Py7RbyWi3y2R3lwQXdEjit7hqZnlEKLXtdGvI7z0WVmif8rkitnosb7E9tjbU/RtO0HRrwv3pH7RD31qZtkQPUnRV4qu6DFvulXcN0f0SR7dFT170Q97w80wotvohYt+pei5i37QLfUqDCO6jU50RR9Y9AOemtnjiyhEn+RGV/T8RQ+Xez9jsCG6o/tOPip6/qLPYt5FNrqNPmrRPRnX/35eDia6jU50RR9c9D2/xLbXTUR0G91Gz1X0/Z6aWRPd0V3RSxZ9r7+Yvt9bstGJrujZij6PFXRFt9EVPV/R9/iL6Xt+AYXoNrqi5yv640/NNER3dH+Qc0UvQ/RHk74JQ4puoxNd0ZOIHiJ9IBR9kht9U7gnExL9OM6FJPokN3o+RfdkXB9FbwLRHd0VvQrRj6N4aKPb6DZ61qL/z1MzB9w+im6jK3oPng4v+jyGhkS30RU976I/WJFD3gbRbXRF78FRAtGPej38aqPb6IpehOgPPDXzKgwuuo1OdEX/zJMUos/6fwyIPsmNnsvRXdG739nnRHd0f4x1LpeM6F09vQkJRLfRCxc9l+tX/pNxSY7uoXna91Cm6JPc6IpeWNF/emrm0DuH6JPc6PkUnejdPiMuie7orui1Hd1/usMOvnFsdBtd0Qso+g+fUdZpRLfRFV3R04r+3d19+P9NdBtd0Us4un/71Ey7Jrqju6LXWfT/bu/Vy5BIdBvdRlf01KJ/lbVtUoluoyu6oic+uv/3wdoEotvonoyrtuhfnpq5CUR3dFf0ikWfd5fPRrfRbfRCju73fzG92z2j6Da6opdS9M+fVpZEt9EVvW7Rb2/xjv8j0W10RS/m6B5mXS+djW6jK3o5RQ/PQ0rRbXRFV/RRRA9Et9EVvfqjO9Ed3RVd0W30TEW/Hkn0fIruyThFn8BGvxpJ9E3hRd++f3v6/PkiCs8bR3dH94E3+seRRD8vfKNHpdfNrOiO7hmLXnzRt6u2jSX6mug2eqWinxcvekR6ie7obqMrehFH95WiO7rb6IpOdKIrel+elC563Ud3G91GJ7qi2+iKvufvPwPRbXRH92o3+pWiO7oTvf6iE93R3UYnOtGJbqMT3UZ3dLfRia7oRHd0J7o/jLPRiU70wkSfKbqNTvT6N3oguo1O9PqLTnRH94xFvyY60W10ohOd6DY60W10otvoJYi+ff3uzzezZhHhx0LRie7onqvopX8Zmug2OtH3voxtvx93/7VtQ3RFt9GrL3ov0W10otvoExBd0Ynu6E50otvoRCc60RXdRrfRbXSi2+iKruhEV3SiE91GJzrRFd1GJ7qNTnQbneiKTnRHd6IT3UYnOtGJrug2uo1uoxPdRld0RSe6ohOd6DY60Ymu6DY60W10otvoRFd0oju6E53oNjrRiU50RbfRbXQbneg2uqIrOtEd3YlOdBt9WNGviE50RbfRbXQbnegVbHRFV3SiO7oTneg2OtGJTnRFL2KjT110G53oNrqiKzrRHd2JTnQbnehEJ7qi2+g2uo3u6G6jpyr6kaIT3dG9ftFnRLfRia7oRFd0G53oNjrRbXRHd0UnuqO7ohPdRic60YluoxPdRie6jU50G53oju5Ed3S30YlOdKIruo1OdBud6Da6jZ626B+I7uhO9PqP7quaRbfRiU70CYhuoxPdRie6jU50G53oju5Ed3S30YlOdKIruo1OdBud6GVt9HMb3UYnev1H93NFd3S30YlOdKIregUbneg2OtFtdBvdRie6o7uiO7rb6EQvQfSwIrqi2+hEt9GJbqMTXdGJ7uhO9ASin9Usuo1OdKLfc6noNjrR69/oZ0S30Ymu6ER3dCe6jW6jE53oiq7oNjrRbXSiF7LRN0RXdKLXf3RfEt1Gt9GJTnRFV/QKNjrRbXSiT2CjE13Rie7oTnSi2+hEr0H0D6WLfqzoNjrRH6MZX/SeG/1XotvoRFd0oju6E72CjV616DZ6JNHXUxe9UXRFn8BGbyZf9OI3OtFtdKJPYKP7w7hJiX6p6I7uNjrRie5P3RW9go1OdBud6KnoaNun/q/cXHYzLkxe9DNFz1n0TZaiP+tw21+8Ox3xc0xv0beFe5LDRl9OQfRORVi9W4dcWSxOTk5+u7hj1/v2+Scubm5/zcmbxSLey/510oUXEd7d0en3DvxyMjYv+t3Ms24ftWYMNd7evrcPqvHVjt9vPyino/wOAQAAAAAAAAAAAAAAAAAAAAAAAAAAAAAAAAAAAAAAAAAAAAAAAAAAAAAAAAAAAAAAAAAAAAAAAAAAAAAAAAAAAAAAAAAAAAAAAAAAAAAAAAAAAAAAAAAAAAAAAAAAAAAAAAAAAAAAAAAAAAAAAAAAAAAAAAAAAAAAAAAAAAAAAAAAAAAAAAAAAAAAAAAAAAAAAAAAAAAAAAAAAAAAAOAf9u6mLaobCgCwA0PXgx+sAWXWgHrXqDBrKu2sqVPy/39CxapVizBgkpuP93266gLaJOeek5PcCwAAAAAAAAAAAAAAAAAAAAAAAAAAAAAAAAAAAAAAAAAAAAAAAAAAAAAAAAAAAAAAAAAAAAAAAAAAAAAAAAAAANCeyfY9nT5988M/b2aGsTbb30/h9gOY9Yo8O7gIv+74jZGsyulBhFn/2zjWY3H/+V2F4Qcf/92eoayoiHv7wzSuHhToKyNZj+kqxHFiLKuJ8+chDBGm/MpQVmQZKdCv7Nhq8TzSlF8ayopsRpr18JexrMNZlHSuiKutjosV6EFKr8JGrPn+YCyrMh+kdHu1Bzg0llXZktJN90MYy8pq91gZXXOmBtFm2yl6bRae8f2I1nsN5waz1+6MlN5RQvdU77g9Y/JL9y7aVGu91mdHSu/ENNpMO0TvunaX0ntpx7jn3nftLqV3ktBNdI22pHQJ3Z2J9k086SV01187MPeoN8sO0dXujl0aELHnaodWq0FKl9A9zdu3YxFI6OvbNZxWgZRepnhnqL4hZRlI6cU+yleOVoj5VpPbka3v0NVsFYt4lO5N5QJtmV8+WejVtCzisYpD9Lr3cBFXgntTpTmLN7kr77PUbemZ36yIl181W2sXsx3n/KXdfZlea+VituPC4cSAtrktsy/z2HcZulDzqM9w4+m5705F8xPrEV6/mO04lyoanVetuPptWhAt2gpacXxrYkW0aNCK43tR23EuSpbhXdCKI2XX5tyAFiDqXRmtuEZEPYdxa6a5Ki1cGlB9G6ui+SJN46URE3WeGk0rTqEnpXddomm7aN2o9Iqs0KIerfmDa0o9R2xF2gkqNNR66jM9l27FLfYcsbVTnqnPVHuqvRJFPlrzKUDlnrfYCjRZxp1JZ2tNmS3Ue22IPJGuuSv4FHwdlGbO1loTueLTjxtH5E6cbktzNpV8CjPNlg6aOIMlUv8kRq7L9FoaFPmETbt2BLE7cVot2jjux3VQuHtYSwcatuWZe1YzQkr3Sdi8nsV+UntUSwh2eO0/qJ2cNGor9kJxmF71c9rBSatin7CFS2Na72Pa1qtZm3JCtaLfg/CloIYXS3A+U6uFuWNtO/o5lYp+hK6VKqUr3suzDDqpKACVYi7L8I2pBWPa3GvsQPzDWF8RrbFw11zR1PGqYweFu8ez5KB4L0yCFmq4NKyNe5JguzczrJVttxyWtG9QvCvc3X5t32ZQvNckQcfd7dceNnwpdnwrCyfZfCVoqrj80INZglJwsHJqKtzdfu0jR6RYOr8b1yQ2goTOA1P6QvHedeGupaK94x2JsixMFYUtnz+Ma3RbQUKnsJSuwxO/cB9SbLLs0KX0X6sIZwY2rrmEzi9J0svVzI0sxdUmH3OXK5yx9fA09n6qRWSbXpSlhE6hKd02vfA+ioQupXuPrShpTtZ8QUpK19ItySRI6BSc0r0AWfAGXUKX0t2vLMqOhE7hKd02vdgNui9IqQ5t0zvYoPuCVJc2g216X49gCb1PQ6Ll5DS9zA26hC6l26a33zyR0LvdCiYrEV16f7hpkNCpJXfYpj/YPNWc+DsbFpVFVYyFhE5FKf2DSH+QZ8EOnYpSuoZcYU9efRMLKw0fi3xAIy5Ze9R76FJ6KntG954mCWfj0PBK6YmSyInhvZ/nQUKnvpR+JdJLacRJ6FJ6wtXls7ClFFcSOouEkX5seNdvxA3p5mGQ0JkmDPRwZHzXbcQtE06DhE7alO7l9HUtzQIVp/TVrgFex7uUk+DzXlzbSbnIvN+yjidBQif59jDpKnPH+m5bQUKn9pRund1lI0jo1J/SHacbfoqwmXapeZPtVkPQJKGJteabB7dYBpU7baR0V61/bp546N2WIeNyk1Z+YhGSU0/x1Ubq1bZrjMcopYw9mStIPaEbbOWIc313/jNNvlUU6f/zOORh40S+zaJIHyvO3VniP5Mg0vN6GrLxujBfzNL3f31b6lsbISMjz9eUPoj0nPl8yBno+nF89SyI9GzSfcJdP447LEV6tro9c5zrx5F313i1a5xHiPMw6Mfx1SLI6W3GuTMPvu3HBZHeaJx7WZhv5Nkudl69bwxhFPpxfLaZqYrcFecjcMRGxj1675E+WpxL6Xy2la8zdG6M83PExifzINIbjnNX3vm3qMy66A41QfIfsVnkZE3onX7h6EkY2aFVTvaq8m9xnt2Jdd69/Lc4Oov0xfhx7tYMY7SJujrZnYcSSOkS+hjdoZnxldJpPKF3FOmTQuLct597N6glE5qGYrgI27URD3h/b390H4eCSOkS+jhetV62n5UU51K6hD5ag6jpjfpkEcoipXec0IdRl97Vm3aH9uk8DGUFundbJPTRLmG/aDbOC4vyjwYp3Q59pDgP4Y8my/fJ21AgKV1CHy3LhOOT9gZ2ehCKdG7NS+g26tE8XpYZ5yspXUIfsXxf/dHWuL4dQqmkdAl9TO8bKt9LLdvt0nu1VdIC3FO2S+kkUdSKXL1vY1APhqLj3PU4CX1srxso36cXoXS7Vr6EPnJSr/4tl7Oh+DiX0iX0ApJ61SM6KT+dS+n9mRd50FvxKnwW6iCld2Wj0GV4XGs6n4daSOkSuqTeeDq/5utxHZmqLWOm82WoyYn1342F4jKeJ6EuUrqE7qbm/cdyqCzOe/rWdu82i1+M1ZypPw/1ORQBfZhUkISuqthJPgs18sdVO7FVxXL8UHyFuTGEOp2LgS7U0iQu+zNTT+ehVt5W7SOhr6qpMfeKDfXt56Feg5Teg5oy0dWbIkN9+yxUzT3YDmxUVmaeFhfqTysPc5dmurCobVEWFuoNhLlLMx2YVHcYFMLrckL99OzTf1H1ZiKhcZtVrsurFyUUm5PT6y8/Dg3EeTgSCY1bVroyr/bH/v77dP+ijWzu0kwHtipdmMP1ByRPx8rk11vzgyG05FwsSOjFpqHXL673lrPsUT55++fQStHu0kwPNmpfn6//3PscfHlcP1RODy5CO0X7F7uioWE7DazQ15/+sEuuWN8+uAhNcmmmZY10ki4yXIO//g2Tg4shtGomHJq12cwqXb1MHuuTs4ajPHgtvWVNLdzVy/fpTtymBy+LrLcjPqqdsDlbq2jD/iJBYn9b6rZ8NYtZkzlha9W8zRr0z9OoQV5w2bMb9XN/2nGNmoR2vYxwcW6yX3iD/ShyO/VETGjFVRnt719sP/AQbb+CxtunV86WEX/gX2JCK67icD/ef7N2vG8/3Z+/rOP/69/m2U70n4hWXN1N+av9/b3t7Rti/uO/fLq///xlXU++fwvt35ywcbtF6NtQ9131zz3yqJeYteO04ijLqy/zmKBKQCuOMlyl6bSo3duzFC0VNxxmX+dxJ+rPFRet2RAtFcf57n8TGbUb53Zcc3aES/WNuARPbJ+DdYhOcY24+N04L6s6RKcQx48SBrp2XFvm4qXahvss4X2IlW/HNWUqXqqN8x/PuuN24xylO0SnBLuJd2HebHGIzujnamHv/5MZ+VeIDofoP3Oqh5/JTX86KXXJgEP0z+z5M7nxmHuR4XdQpdj9oUePHgvCDD7ceMr9W+zHNg7Rb3T58We+E4bpd+izLBsxR+kq95udJyggWf/kK3bdIEJU7rfUenORmNbez+Yzdit0JkQcov/8QGai9Z7UYbYK7VKMNCF26v1yxULrPaVbLrLE7sa5BqtyvzXVeMc988FaqnE/ESQN+C3dsvBOXCq3Jtnon/9Tu7dgmaYXl2T7z3dtkFxT6hpsA6I//r87jXHIlvVgLVE3Tu2ucr+rSyTSE9jNfI6idm/AkHgVOk6P7vyuOY1/3iFOahd/TcxS9wDEefbtmFfYVO63btHT1Ax9ezXC1Qifn1C5333AOxXpER2vM6vRu3Fqd5X73YWlSM8c5wmuKqndVe63b9E/rTuRHsnrsZ7fave6Re+U3fyOtEjPGucJNunuzKjc79iii/R4cT5bd2IXaneSVu5Hj0R6Kh/WjvMEbxmo3VXu3zr52a/yFblfjvOTMUs176qq3O/con80EekZ4zzFVz/U7vWK/3LZbd8XE+nZ4jzFzWO1e73ir4ajRyI9heFqdr+pfaJ2J13lfkd9J9IfHGUn95zbBF/3ORExlYrfml3dkXdE+gPH9d5BlmCTfiRiVO7rlnciPUs+T3Kg4vvulYr/MuMaD32Rnml3HH+TrnavVIJt3Pkov1WcZ9mXrTO7FGiRfYueqgUozrNs0v1d1Tor9+VIa1Kk3+vh+cDpnS3HeY7TweHa0SORXszpdfyCzeW4Ku2Mt4kT6RluqSTYpKvdHa7dr7SbCOHkJ1rToh47NFS532Md+FOr6zj+pRlOMMQO2OqT4K8lXd7n9y/F8V1e/doM/8Pe2ay1kWtR1GVsxkXMZWwI9hhIqLFDiMeGBI+BavP+j9AEmibpm3Tj0pF9ztZa+TJNXJK2zq+kgy3PMIgW19ass05Rclad59jKaY6LV1zLsDLX/Anv0fK/JTyuPE4xBbZoZGhQWztV8xk5/17ni/Q5zhAdLVAOxbX1A7gvpOR+t2mODeZ41/53cftENDJIrMPafIfSf8m5SXo7QyWdW58prnV6tadP8v1XOjcKhTP8NApsscjg1XVrmxp8Rdf/5NpqljPsohTYYpGhtnXSMTc8Qdk/e8fHnrdzCmyxcOTUVV8eWuT9moY7dF1a4VnVUPhK01wi75dBXPdW583v5xTYKK51Zn/5QPr9iTPbZNecIJ3imqedfjBF4985rm3nOUOQToGN4loCj4E6tIfWE52jC5YCW9HFteRsLNfDrvbsZ5oCW9G4DN0GhYfpH+sYWzrXzFBcS/Qziw7Ur7LMdIYCG0F6GNzOfsGB+izOnj5GQeWG6Eanmkq9NTJfvxkFtoLJ4CIvrH7bskSdn4ba1OmCLThEt0skFXgbRc6ClYObhGBLWnwr+QAADfdJREFUOL/wu7TH2TIbyAwuEkE6ITruu49s+ysHBOmlkkFHte0vHBUj83aWe7Y9XA4IW6HxP/OlNM9soPkkQ5BOJb3UED3DlYEl3AX9YSPBboYC2wIVBSCDX5xjwfbVjXp7FnZjP0VFRYbomd7NnkhL/cOmzGIG350gPQAZnjfMFWm+0704sr3e3Izb90cRpJcZomezTdWjUZe8T+78aoMzHiRWA/fTXuf7tYJG/XHvuq43OeODQFs7OHbksrZ2VV/kjPrZ4YanfBlrysFpiH6S2SBNHnSk3jysrO+F+2/sC2xk49yToVFqlvs3XywfNG6JffyI65nEnBOke+dzxN29ulDw3x+/4P5yK5Nuv0sSpJcXom+ke2J/Et6oP+5Vm/fac/nuXBxXXoi+IS/uchlc5g/Xn7Y168OIbhwkZbbiNk9Ul3H990eZn+1tcdrtt/cZWnKNfRX9bnM/PvArD6tP9RZnvZ5H9ePATbS20Rnfiyn19rDe7rTvEKQXxjKs5/5i1QPeKfet3va02x9soWWmsBD9bvOLdorMHRRbatTkGPvWicU27FMgqX/0MfH2vjvZuLJC9C25okFqbWduZj5m+wR48eDutvUlgwBSP6uFZ55snGMqCc/95WOcXyv3zdXUm/vutMwUFaJv93smfgtq37zNPdm4gjDf1m+3/UU+6+rtob+5nwo5c7DpXJyDyd53F6yfz4rY5O/Qk1saLc/9JS83+eBH5R++eZ18snHk4sJ67i9cfG1cqNynMc/kziEor5ifVhz7+ba999s26+25ix64zc0+2TivHATvc/8Xvi+6dzdPWt/4UdbmSeXbuCNqu777CYpyylTVc3+KS77/vdi01p/+p/bm6U6JqrB9nmxcKVu6NxtWb1jrzQ8qD4B1FwUtM04ZFDDRz1qfPD370Lb5bfn10adeAGP+jHXCEkn5ZKeMGO1J65dHN00+w948/duro0gqz+C7z9CUS3bLmuf9i6Pn95yMLfuzKT87Op6FUnkGl+4WTbnEtoWs9X3HSP2kwv3LHGI/P778VLMCyMaVkYtbxPjqau/y4v3yxRgnh6nnR0FFniF4IxtXhOMWabk/mvbjmxeRNwnW/WP96i+wBBBVASF6vFbnvb1PF19uivZWp7aJd7JxHrHNuTbjoMOwt7e3fznpuuCDX35q3AZLNk4/ExM8PuvaJLiqYn+3rUUnG6efiws+x/NC809zdntycVEPrnWh69NUbfBVYNwGi6zUc3HRH+qYl5p/sg3gyMapC30RezDqzgf5xnXsL7ctpZONE9/K27rU0Qi+wxlHcAhdPBd3X+y2dxL9y6esA3JxpaTielXnMlP4KxFtS+kIS3p+w5dVuief76vo324aw9UoSzkXF91/rToLvY1fOjbtkFygLGeYdkrMyvVvwqchbYM4snHKDtt9ydte+E3ONB3HKw7eIBVntNbjf/yQbI0uAybXSOgCUanlyRakpbuLx4/LqoRA5jT+YjjAu5PFsvMxfDoqyb8RiEot3+A7QVsq2SfBlZ5yhuue1YDQ/bLEWbMReqsgdMPDqjTBquZfFPKsKRmLVmE52O37LdpSCUoFfbUk13VGygahK5owtc4whG6ajpuhLskdXOI+wJTesLDX3/6EXYVtgbocMWID/0noTekre0AoJ4lZe7NEkrVK0blCx4zliqDb3RG1WZZVwm8dsLLtKmyrCn35waq6pnGGAaH37CpsHGtRjMg0ArJ+yhvKrUiLiFUhRqIMo0KfSbVb4yImrCKa08Nq9xZ5ayuxtiRiwqwqMQtMuhusyugzjeGYMwqG8dwCfamsbLVKyrxB6HargidV3dD9ASLNaCxtOBqVYTAy6Zxf88OSGTUcDhlfdcqyQOjCBr3CV33GphhDId3Pym6YUEOh6zR92pj0GoVJ7dwyHmtibNrqCN2m7DpDYUpC1+mAGrRYdMuYbozClIR+ynDoBaUWJr1B6ErTKdTSnNo+pHR7UkNMJ4RFs6NQW8QB2SeWhiRzMi4I/ddYFGS4esILUybTct9rhDa92sCk0zHjZTKn6dt2rST01OFQyj6lm/QWoetY9D8YDtV6UrpJpzXOC0sM+o8k27BTpdFIN+kIXWYqpfKq6VeraKWZR5gBVrbiTCJ0azswQ2MuGLCwTYXeitWTRghdY2EPMOg/7XstqUlTk04PrBP6GHTL4dDLPo2w6Boru8Wg/8AQoRubdCy6hAlTa2U2uBJXbYWMcN0xYXLFk13uVDE26Qs0JrBfy51NShd6U7NEZBuIivVV5TItB1h0Y5N+hcZcMGe3NhsO1TTzkDVS9soWfCvTQOiC2acl0V3RK/uUJV1G9inFpHPzRHihKz5+bSD0W8FVMkXowannmK4faRD6r+gj9PAWvfPSljxp/IDQjU06Qo/uuo8R+i8DGkmhD0jGleq6a14GZmDRNVf2HIteqOs+UxyNykDokiu7+3FmhB57p9acPwuhi957OmKhlCj0VtKgmzxEJyr0aonQQ8foDYHoKxYP0aneezpE6OVZ9FWtORomT8uqLpUpQi9O6AvR0dhB6L+nWz6OQy1OhN6wS7+yi9CtjcICjcWdvBlCL1HoFRa9LKHrhl0mQq9lh+d/WPSwHLCSEfqbWb/ExuWQThixRyP0N9OhKoHQfbB+dVT5xesDC6ErL+05+Zxi9ugxQi93gAa47lGF3pKJSzFYpTmrO1j0MrZoxfujXplaCP1EesEsWS9FCH3RQ+glXjHTdcG0SCzkDn3fQ+hlW/T16jTtPQrzsrbX6YEVPZ36Nw0W3dg0IHQn1FMc91ceELqx887hNS/M2Z6x6OuxTicsre5eGOK4Y9GzpTIoo7uhj+OO0NdkjWulEHq8iOtjD6ETlj5bh7fGOJTR/fDW3XnVQ+g8WbBmmL5CX9ECrtUMoSP0v5mQvo3GDsEWrnsu+7BAX24SK2/Lxn3rIXSKkD+umyXmIRhvSayclbF4EfrbGbxh3dDpHssJa+5rhI7Q/0GfoVAL0ldl6Byhr8e70s/3RPPBKIYi9E78Z5Fthro8sWS6LIVeUGA6ooou5LuXsy2bPL0m/ILD/zPHc48EOrcUelGp5jk7XiB20TkW3V7ptygrjElvS9I5Fr0LU2xEfJNeWDYFi25p0zHoDlnS74BF78pn9rvYS/yUUUDoncdtgao8Miw8PMd1Nw7U79BUDKWfFTgGuwi98x7Z0OUecaoKNOe9Dg+LIfRX3jXoPAiTvx5cbM/HZQ4AQk9i8PUvrX+4QkzOd+WbR47rUj8foadyef31fHKIkAChAwBCD071+AcAoQMAQgcAhA4ACB0AEDoAIHQAhI7QARA6QgdA6ACA0AEAoQMAQgcAhA4ACB0AoXMLLABCR+gAuO4AgEUHACw6AGDRAaAbPMkEgNCx6AAIvdBH5QHKFDrvjgEgdABA6ACA0AEglQqhAyD0t/EHAwmgL/Q7BhIAoQMArjsAZMZE6LeMIwBCBwCEDgAIHQAQOgAgdADo9RoLoZ8wjgBYdADYLksLoS8YRwDXTC2EPmYcARA6ACB0AMjMgYXQa8YRQF/oM8YRAIsOANtllxeZABA6QgdA6AgdAKEDgAt2EDqAPhZPtfCYKoBzhggdQJ8BLzIBIHSudQdQIF3nLQ+1AOgL/eGWUQRA6ACA0AEgOw1CB9DH4HbIE0YRwDkGd0ktGEUA58y5Mg5AH4MrZmaMIoBzdtOzcTWjCCBv0RuEDuDeonM3JIA+BjdPMIgA3km/eaJlEAG8k35OlXsnAPwLveXeCQB5qmTPnXsnAPSF/sC9EwD+aRA6gD5LhA6gz5RTqgD6HDQcXgPQFzqnVAEQOmdaAAQYcaYFQJ8hQgfQp8+ZFgB9qpYzLQDyJB5faznTAhDBovOWKkABLBE6gD5TWt0B9El8wmHBCAJEEHpDByyAPGk9sM2MEQQIQGIPLEIHiMCQDlgAffotjXEA8qS1xtEYB6AvdC57BgjCksY4AH2mNMYBIHQa4wAESOmBbcaMH0AIRvTLAOgzROgA+vTplwGQpxrQLwOgT4LQuTEOIAwN/TIA+iQU0k8ZPYAY1NPuJn3M8AEEIaFjBqEDRKF7Ib2dMXoAQehTRgeQp0LoAAUwoF8GoAAaqmsA+kw5jQ6A0H8v9JrBA4jCiEOqAPoMSboDyFMhdIAC+LO9u0lpIAjCAMpMftZBcdaiOGslkCO4Dkiyjsb7n0HiQlwEorPR/uq9IxQU3V9198zc2zUoYOL52qPKQUP2Ttcg3+jtGuSbTXu7pnCg0YF/pfekBQrYGLqDRtfo0L7V6KY75Js0jVM2aMvSTXfIN+W2+6uyQWMmNPpB1aAxexdgId9gFgf5li7AQr7eLA4KMIsDjW4WBwkGszjIt3QvDvL1IjoI6d6oQoJf3o1bqRg0aHBdBvLNXJeBfJ1ZHBQgokMBzyI65FuK6JBvLqKDkO5Lz1AspCsW5If0d8WCVnUuuoOQ/mUjokN+SPcWHRq2ENEh309P0rdKBQ3bO0UHIV1EhwC9iA75uo2IDvbuIjoEWIjoUGDvLqJDvtXop2tg7y6iQ4DLl+PeFAmad3Hu/qRGkL93t3OHAA7XoIDBx2Ug39xnIaGAvT83QL6ZURwU4PorFDBY0CFf52wNKi/pW7WB+CXdgg4FlvRblYH4Jd3IHbKc/bHqSl0gy5nPwR5UBcL0PjgBBVzbuEMBo4k7FHD/rc2P+hxSO/00kTue+nytzyHWzcvn8H29k88h2dXDbnenzSGaFocivd6pAQAAAAAAAAAAAAAA8Ac+AO+K1YYJfL07AAAAAElFTkSuQmCC;" vertex="1" parent="1">
          <mxGeometry x="452.26" y="807" width="50" height="50" as="geometry" />
        </mxCell>
        <mxCell id="oUtlI6CtiOxXI8-v9puc-59" value="Cloud Audit Logs" style="shape=image;verticalLabelPosition=bottom;labelBackgroundColor=none;verticalAlign=top;aspect=fixed;imageAspect=0;editableCssRules=.*;image=data:image/svg+xml,PHN2ZyB4bWxucz0iaHR0cDovL3d3dy53My5vcmcvMjAwMC9zdmciIGZpbGw9IiMwMDAwMDAiIHZpZXdCb3g9IjAgMCAyNCAyNCIgaGVpZ2h0PSI4MDAiIHdpZHRoPSI4MDAiPiYjeGE7JiN4YTs8ZyBzdHJva2Utd2lkdGg9IjAiIGlkPSJTVkdSZXBvX2JnQ2FycmllciIvPiYjeGE7JiN4YTs8ZyBzdHJva2UtbGluZWpvaW49InJvdW5kIiBzdHJva2UtbGluZWNhcD0icm91bmQiIGlkPSJTVkdSZXBvX3RyYWNlckNhcnJpZXIiLz4mI3hhOyYjeGE7PGcgaWQ9IlNWR1JlcG9faWNvbkNhcnJpZXIiPiA8ZGVmcz4gPHN0eWxlPi5jbHMtMXtmaWxsOiM0Mjg1ZjQ7fS5jbHMtMntmaWxsOiM2NjlkZjY7fS5jbHMtM3tmaWxsOiNhZWNiZmE7fS5jbHMtNHtmaWxsOm5vbmU7fTwvc3R5bGU+IDwvZGVmcz4gPHRpdGxlPkljb25fMjRweF9DbG91ZEF1ZGl0TG9nc19Db2xvcjwvdGl0bGU+IDxnIGRhdGEtbmFtZT0iUHJvZHVjdCBJY29ucyI+IDxnIGRhdGEtbmFtZT0iY29sb3JlZC0zMi9jbG91ZC1hdWRpdC1sb2dzIj4gPGc+IDxwYXRoIGQ9Ik0xMi43NywxMi43MmExLjA3LDEuMDcsMCwwLDEtMS41MiwwTDkuNzYsMTEuMjNsLjc2LS43NkwxMiwxMS45M2w0LjItNC4yLjgxLjc5WiIgY2xhc3M9ImNscy0xIiBpZD0iRmlsbC0zIi8+IDxwYXRoIGQ9Ik0xNiwxMS41OWEuOTEuOTEsMCwwLDAtLjgxLjgxLDMuMjEsMy4yMSwwLDAsMS0yLjg2LDIuNzYsMy4yNSwzLjI1LDAsMCwxLTEuODQtLjM2LDMuMTksMy4xOSwwLDAsMSwxLjItNiwzLjA3LDMuMDcsMCwwLDEsMS4yMS4xMy45LjksMCwwLDAsMS0uMjhoMGEuOTEuOTEsMCwwLDAtLjQtMS40NUE1LDUsMCwwLDAsNywxMi40OSw1LDUsMCwwLDAsMTIuNDgsMTcsNSw1LDAsMCwwLDE3LDEyLjYzYS45MS45MSwwLDAsMC0xLTFaIiBjbGFzcz0iY2xzLTIiIGlkPSJGaWxsLTEwIi8+IDxwYXRoIGQ9Ik0xMiwxOGEyLDIsMCwxLDEtMiwyLDIsMiwwLDAsMSwyLTIiIGNsYXNzPSJjbHMtMyIgaWQ9IkZpbGwtMTYiLz4gPHBhdGggZD0iTTEyLDJhMiwyLDAsMSwxLTIsMiwyLDIsMCwwLDEsMi0yIiBjbGFzcz0iY2xzLTMiIGRhdGEtbmFtZT0iRmlsbC0xNiIgaWQ9IkZpbGwtMTYtMiIvPiA8cmVjdCBoZWlnaHQ9IjI0IiB3aWR0aD0iMjQiIGNsYXNzPSJjbHMtNCIgaWQ9IlJlY3RhbmdsZSIvPiA8L2c+IDwvZz4gPHBhdGggZD0iTTE4LDIwYTEsMSwwLDAsMS0uNzEtMS43TDIwLDE1LjU5VjguNDFMMTcuMzEsNS43YTEsMSwwLDAsMSwwLTEuNDEsMSwxLDAsMCwxLDEuNDIsMGwzLDNBMSwxLDAsMCwxLDIyLDh2OGExLDEsMCwwLDEtLjI5LjdsLTMsM0ExLDEsMCwwLDEsMTgsMjBaIiBjbGFzcz0iY2xzLTEiLz4gPHBhdGggZD0iTTYsMjBhMSwxLDAsMCwxLS43MS0uM2wtMy0zQTEsMSwwLDAsMSwyLDE2VjhhMSwxLDAsMCwxLC4yOS0uNzFsMy0zYTEsMSwwLDAsMSwxLjQyLDAsMSwxLDAsMCwxLDAsMS40MUw0LDguNDF2Ny4xOEw2LjY5LDE4LjNhMSwxLDAsMCwxLDAsMS40MkExLDEsMCwwLDEsNiwyMFoiIGNsYXNzPSJjbHMtMiIvPiA8L2c+IDwvZz4mI3hhOyYjeGE7PC9zdmc+;" vertex="1" parent="1">
          <mxGeometry x="1481.5" y="652" width="66" height="66" as="geometry" />
        </mxCell>
        <mxCell id="oUtlI6CtiOxXI8-v9puc-60" style="edgeStyle=orthogonalEdgeStyle;rounded=0;orthogonalLoop=1;jettySize=auto;html=1;entryX=0;entryY=0.5;entryDx=0;entryDy=0;exitX=0.5;exitY=1;exitDx=0;exitDy=0;exitPerimeter=0;" edge="1" parent="1" source="4nu3x6ZRgFAnAhl5ueNj-22" target="oUtlI6CtiOxXI8-v9puc-59">
          <mxGeometry relative="1" as="geometry" />
        </mxCell>
        <mxCell id="oUtlI6CtiOxXI8-v9puc-61" value="" style="image;aspect=fixed;html=1;points=[];align=center;fontSize=12;image=img/lib/azure2/networking/Network_Security_Groups.svg;fillColor=default;imageBackground=none;" vertex="1" parent="1">
          <mxGeometry x="839.15" y="373.375" width="22.85" height="27.75" as="geometry" />
        </mxCell>
        <mxCell id="oUtlI6CtiOxXI8-v9puc-62" value="Network Security Group" style="text;html=1;align=center;verticalAlign=middle;whiteSpace=wrap;rounded=0;fontStyle=1;fontFamily=Helvetica;fontSize=12;fillColor=none;" vertex="1" parent="1">
          <mxGeometry x="875" y="377.25" width="147" height="20" as="geometry" />
        </mxCell>
        <mxCell id="oUtlI6CtiOxXI8-v9puc-65" value="172.18/16" style="text;html=1;align=center;verticalAlign=middle;whiteSpace=wrap;rounded=0;fontStyle=1;fontFamily=Helvetica;fontSize=16;fontColor=light-dark(#212121, #ededed);" vertex="1" parent="1">
          <mxGeometry x="1118.5" y="272" width="130" height="20" as="geometry" />
        </mxCell>
        <mxCell id="oUtlI6CtiOxXI8-v9puc-68" value="Azure&lt;div&gt;Key Vault&lt;/div&gt;" style="image;aspect=fixed;html=1;points=[];align=center;fontSize=12;image=img/lib/azure2/security/Key_Vaults.svg;" vertex="1" parent="1">
          <mxGeometry x="1333.0000000000002" y="956.25" width="50" height="50" as="geometry" />
        </mxCell>
        <mxCell id="oUtlI6CtiOxXI8-v9puc-72" style="edgeStyle=orthogonalEdgeStyle;rounded=0;orthogonalLoop=1;jettySize=auto;html=1;exitX=1;exitY=0.5;exitDx=0;exitDy=0;entryX=0.002;entryY=0.866;entryDx=0;entryDy=0;entryPerimeter=0;dashed=1;dashPattern=8 8;" edge="1" parent="1" source="oUtlI6CtiOxXI8-v9puc-56" target="oUtlI6CtiOxXI8-v9puc-17">
          <mxGeometry relative="1" as="geometry" />
        </mxCell>
        <mxCell id="oUtlI6CtiOxXI8-v9puc-58" value="helm upgrade" style="text;html=1;align=center;verticalAlign=middle;whiteSpace=wrap;rounded=0;fontStyle=0;fontFamily=Helvetica;fontSize=10;fillColor=#e1d5e7;strokeColor=none;fillStyle=auto;" vertex="1" parent="1">
          <mxGeometry x="574" y="822" width="67.78" height="19" as="geometry" />
        </mxCell>
        <mxCell id="oUtlI6CtiOxXI8-v9puc-74" value="Network Interface" style="image;aspect=fixed;html=1;points=[];align=center;fontSize=12;image=img/lib/azure2/networking/Network_Interfaces.svg;labelBackgroundColor=none;" vertex="1" parent="1">
          <mxGeometry x="644.99" y="577" width="57.8" height="51" as="geometry" />
        </mxCell>
      </root>
    </mxGraphModel>
  </diagram>
</mxfile>
